<?xml version="1.0" encoding="UTF-8" standalone="no"?>
<!-- Created with Inkscape (http://www.inkscape.org/) -->

<svg
   xmlns:dc="http://purl.org/dc/elements/1.1/"
   xmlns:cc="http://creativecommons.org/ns#"
   xmlns:rdf="http://www.w3.org/1999/02/22-rdf-syntax-ns#"
   xmlns:svg="http://www.w3.org/2000/svg"
   xmlns="http://www.w3.org/2000/svg"
   xmlns:sodipodi="http://sodipodi.sourceforge.net/DTD/sodipodi-0.dtd"
   xmlns:inkscape="http://www.inkscape.org/namespaces/inkscape"
   width="19.838448mm"
   height="19.789282mm"
   viewBox="0 0 19.838448 19.789282"
   version="1.1"
   id="svg3998"
   inkscape:version="0.92.3 (2405546, 2018-03-11)"
   sodipodi:docname="ikonlogo.svg">
  <defs
     id="defs3992">
    <clipPath
       id="clipPath4016"
       clipPathUnits="userSpaceOnUse">
      <path
         inkscape:connector-curvature="0"
         id="path4014"
         d="M 0,56.693 H 56.693 V 0 H 0 Z" />
    </clipPath>
  </defs>
  <sodipodi:namedview
     id="base"
     pagecolor="#ffffff"
     bordercolor="#666666"
     borderopacity="1.0"
     inkscape:pageopacity="0.0"
     inkscape:pageshadow="2"
     inkscape:zoom="11.2"
     inkscape:cx="31.684086"
     inkscape:cy="34.497131"
     inkscape:document-units="mm"
     inkscape:current-layer="layer1"
     showgrid="false"
     inkscape:window-width="1920"
     inkscape:window-height="1177"
     inkscape:window-x="-8"
     inkscape:window-y="-8"
     inkscape:window-maximized="1"
     fit-margin-top="0"
     fit-margin-left="0"
     fit-margin-right="0"
     fit-margin-bottom="0" />
  <metadata
     id="metadata3995">
    <rdf:RDF>
      <cc:Work
         rdf:about="">
        <dc:format>image/svg+xml</dc:format>
        <dc:type
           rdf:resource="http://purl.org/dc/dcmitype/StillImage" />
        <dc:title></dc:title>
      </cc:Work>
    </rdf:RDF>
  </metadata>
  <g
     inkscape:label="Layer 1"
     inkscape:groupmode="layer"
     id="layer1"
     transform="translate(-0.07351905,-0.03244289)">
    <g
       transform="matrix(0.35277777,0,0,-0.35277777,-0.00716123,19.927095)"
       inkscape:label="1_3_ikonlogo"
       id="g4008">
      <g
         id="g4010">
        <g
           clip-path="url(#clipPath4016)"
           id="g4012">
          <g
             transform="translate(54.2559,25.024)"
             id="g4018">
            <path
               inkscape:connector-curvature="0"
               id="path4020"
               style="fill:#0099bd;fill-opacity:1;fill-rule:nonzero;stroke:none"
               d="m 0,0 c -3.226,5.85 -8.415,8.705 -15.126,8.691 -2.08,-0.004 -4.161,-0.056 -6.436,-0.089 0.215,0.799 0.366,1.332 0.502,1.869 1.687,6.649 -0.719,13.626 -6.275,17.578 -5.205,3.702 -10.894,4.366 -16.727,1.706 -5.769,-2.632 -9.209,-7.257 -9.67,-13.588 -0.393,-5.382 -0.2,-10.808 -0.214,-16.215 -0.015,-5.844 0.045,-11.686 0.043,-17.531 -0.001,-1.302 -0.025,-2.605 -0.054,-3.912 2.046,1.686 4.23,3.206 6.509,4.558 1.638,0.971 3.33,1.876 5.084,2.622 0.354,0.151 0.294,0.169 0.337,0.578 -0.35,0.012 -0.7,0.027 -1.058,0.039 0.065,3.698 0.134,7.568 0.204,11.549 0.477,0.012 1.066,0.04 1.654,0.041 0.75,0 1.501,0 2.251,0 0.505,1.184 0.979,2.146 1.381,2.958 0.139,0.283 0.272,0.55 0.392,0.8 0.487,1.01 0.978,2.018 1.507,3.006 0.164,0.307 0.329,0.615 0.515,0.908 0.051,0.08 0.134,0.164 0.171,0.249 0.075,0.169 0.054,0.393 0.076,0.587 0.126,1.1 0.44,2.211 0.882,3.244 -0.639,-0.412 -1.359,-0.704 -2.134,-0.827 -0.433,-0.068 -0.876,-0.085 -1.315,-0.094 -1.837,-0.036 -3.674,-0.061 -5.47,-0.089 -0.026,2.298 -0.156,4.423 -0.049,6.535 0.151,2.986 2.892,5.377 5.91,5.332 3.067,-0.045 5.546,-2.394 5.784,-5.477 0.046,-0.604 -0.013,-1.2 -0.153,-1.771 0.436,0.43 0.884,0.85 1.314,1.28 0.257,0.257 0.515,0.515 0.772,0.772 0.841,-1.724 1.317,-3.75 1.259,-5.666 1.643,1.135 3.254,2.318 4.857,3.508 0.534,-0.935 0.811,-2.073 0.796,-3.145 -0.005,-0.416 -0.058,-0.831 -0.163,-1.234 -0.03,-0.12 -0.066,-0.238 -0.106,-0.354 -0.051,-0.151 -0.072,-0.151 -0.002,-0.267 0.066,-0.112 0.295,-0.214 0.399,-0.29 0.635,-0.465 1.253,-0.953 1.832,-1.487 0.63,-0.583 1.221,-1.221 1.69,-1.942 0.098,-0.15 0.172,-0.36 0.291,-0.489 0.105,-0.116 0.265,-0.18 0.41,-0.255 0.356,-0.184 0.713,-0.363 1.072,-0.54 1.356,-0.665 2.731,-1.292 4.113,-1.904 0.661,-0.292 0.455,-0.197 1.117,-0.487 0.656,-0.286 1.423,-1.217 1.108,-1.932 -0.301,-0.68 -0.485,-1.17 -0.999,-1.66 1.229,-0.66 2.152,-1.752 2.678,-3.201 0.819,-2.26 0.143,-4.853 -1.703,-6.443 -1.247,-1.074 -2.725,-1.431 -4.346,-1.426 -2.517,0.007 -5.035,0.006 -7.553,0.007 0.008,-0.076 0.018,-0.15 0.025,-0.225 0.063,-0.718 0.117,-1.437 0.146,-2.157 0.07,-1.687 -0.049,-3.368 -0.165,-5.052 -0.078,-1.132 -0.169,-2.263 -0.272,-3.393 2.768,-0.002 5.537,0.005 8.305,0.041 5.847,0.078 10.575,2.509 13.818,7.392 C 2.899,-11.742 3.207,-5.816 0,0" />
          </g>
          <g
             transform="translate(42.4277,25.7818)"
             id="g4022">
            <path
               inkscape:connector-curvature="0"
               id="path4024"
               style="fill:#01354b;fill-opacity:1;fill-rule:nonzero;stroke:none"
               d="m 0,0 c -0.663,0.289 -0.456,0.193 -1.118,0.486 -1.381,0.613 -2.756,1.24 -4.111,1.905 -0.36,0.176 -0.718,0.355 -1.073,0.539 -0.145,0.075 -0.303,0.14 -0.41,0.255 -0.119,0.128 -0.192,0.338 -0.291,0.49 -0.469,0.721 -1.059,1.359 -1.689,1.941 -0.579,0.534 -1.198,1.022 -1.832,1.488 -0.105,0.076 -0.332,0.178 -0.401,0.289 -0.07,0.116 -0.048,0.117 0.003,0.267 0.04,0.117 0.076,0.235 0.108,0.354 0.102,0.403 0.156,0.819 0.162,1.235 0.014,1.072 -0.263,2.209 -0.797,3.144 -1.604,-1.189 -3.214,-2.373 -4.857,-3.507 0.058,1.916 -0.418,3.942 -1.259,5.666 -0.257,-0.259 -0.515,-0.515 -0.772,-0.773 -0.43,-0.429 -0.878,-0.849 -1.314,-1.28 -0.8,-0.79 -1.56,-1.615 -2.093,-2.609 -0.172,-0.322 -0.333,-0.656 -0.48,-0.999 -0.443,-1.035 -0.757,-2.144 -0.882,-3.245 -0.022,-0.193 -10e-4,-0.417 -0.076,-0.586 -0.037,-0.085 -0.12,-0.17 -0.171,-0.249 -0.186,-0.293 -0.352,-0.602 -0.516,-0.908 -0.528,-0.988 -1.019,-1.998 -1.506,-3.007 -0.121,-0.25 -0.253,-0.516 -0.393,-0.799 -0.401,-0.812 -0.875,-1.775 -1.38,-2.959 -0.86,-2.015 -1.811,-4.675 -2.655,-8.352 -0.245,-1.071 -0.279,-2.181 -0.395,-3.273 0,-0.002 -0.001,-0.003 -0.001,-0.005 -0.043,-0.407 0.017,-0.425 -0.337,-0.576 -1.754,-0.746 -3.446,-1.652 -5.084,-2.623 -2.279,-1.351 -4.463,-2.871 -6.51,-4.557 -0.023,-1.055 -0.049,-2.111 -0.069,-3.173 0.02,-0.001 0.034,-0.001 0.053,-0.002 10e-4,-0.008 10e-4,-0.028 10e-4,-0.028 0,0 13.34,-0.029 19.128,-0.03 1.529,0 3.606,0.009 5.291,0.009 0.854,-0.002 1.708,-0.002 2.562,-0.005 1.075,-0.002 2.247,-0.004 3.005,-0.004 0.36,-10e-4 0.72,-0.002 1.078,-0.002 0.104,1.13 0.194,2.261 0.272,3.394 0.117,1.683 0.235,3.364 0.166,5.052 -0.03,0.72 -0.083,1.438 -0.148,2.157 -0.006,0.074 -0.016,0.149 -0.022,0.223 -0.1,1.061 -0.227,2.122 -0.382,3.176 -0.222,1.495 -0.47,3.005 -0.884,4.462 1.404,-0.645 2.927,-0.939 4.456,-0.939 0.609,0 1.221,0.046 1.825,0.136 1.45,0.216 3.292,0.558 4.353,1.655 0.385,0.397 0.686,0.874 0.916,1.377 0.123,0.271 0.171,0.633 0.317,0.885 0.061,0.102 0.187,0.185 0.274,0.266 0.017,0.016 0.031,0.032 0.047,0.046 0.514,0.49 0.7,0.979 0.999,1.66 C 1.423,-1.218 0.656,-0.286 0,0" />
          </g>
        </g>
      </g>
    </g>
  </g>
</svg>
