<?xml version="1.0" encoding="utf-8"?>
<!-- Generator: Adobe Illustrator 19.1.0, SVG Export Plug-In . SVG Version: 6.00 Build 0)  -->
<svg version="1.1" id="Layer_1" xmlns="http://www.w3.org/2000/svg" xmlns:xlink="http://www.w3.org/1999/xlink" x="0px" y="0px"
	 viewBox="0 0 247 27" style="enable-background:new 0 0 247 27;" xml:space="preserve">
<style type="text/css">
	.st0{fill:#002F87;}
	.st1{fill:#6DABE4;}
	.st2{fill:#F7A800;}
</style>
<g>
	<path class="st0" d="M34.5,15.5v2h2.2v0.6h-2.2v2.7h-0.7v-5.9h3.3v0.6H34.5z"/>
	<path class="st0" d="M38.4,20.8v-5.9h0.7v5.9H38.4z"/>
	<path class="st0" d="M45.2,20.9l-3-4.6c0,0-0.1-0.1-0.1-0.2c0-0.1-0.1-0.1-0.1-0.1c0-0.1-0.1-0.1-0.1-0.2v5.1h-0.7v-5.9h1l2.9,4.5
		c0,0,0.1,0.1,0.1,0.1c0,0.1,0,0.1,0.1,0.3c0,0,0,0.1,0,0.1v-5H46v6H45.2z"/>
	<path class="st0" d="M52,20.9l-3-4.6c0,0-0.1-0.1-0.1-0.2c0-0.1-0.1-0.1-0.1-0.1c0-0.1-0.1-0.1-0.1-0.2v5.1H48v-5.9h1l2.9,4.5
		c0,0,0.1,0.1,0.1,0.1c0,0.1,0,0.1,0.1,0.3c0,0,0,0.1,0,0.1v-5h0.7v6H52z"/>
	<path class="st0" d="M60,20.8v-5.2c-0.1,0.3-0.1,0.4-0.2,0.7L58,20.8h-0.7l-1.6-4.4c-0.1-0.3-0.2-0.4-0.2-0.8v5.1h-0.7v-5.9h1
		l1.8,4.8c0.1,0.2,0.1,0.3,0.1,0.5c0-0.2,0.1-0.3,0.1-0.5l1.9-4.8h1v5.9H60z"/>
	<path class="st0" d="M66.2,20.8L65.6,19h-2.4l-0.6,1.8h-0.8l2.2-6.1h0.8l2.2,6.1H66.2z M64.4,15.6l-1,2.7h1.9L64.4,15.6z
		 M64.8,14.4h-0.6l0.9-1.1h0.8L64.8,14.4z"/>
	<path class="st0" d="M71.2,20.8l-1.6-2.5h-0.8v2.5h-0.7v-5.9h1.8c0.7,0,1.1,0.1,1.4,0.4c0.3,0.3,0.5,0.7,0.5,1.2
		c0,0.5-0.2,0.9-0.5,1.2c-0.2,0.2-0.5,0.4-0.9,0.4l1.8,2.7H71.2z M70.6,15.6c-0.2-0.1-0.3-0.2-0.9-0.2h-1v2.2h1
		c0.8,0,1.2-0.4,1.2-1.2C70.9,16.1,70.8,15.8,70.6,15.6z"/>
	<path class="st0" d="M73.3,20.8v-5.9H74v5.9H73.3z M76.5,20.8l-2.4-3l2.3-2.9h0.8l-2.3,2.9l2.4,3.1H76.5z"/>
	<path class="st0" d="M78.5,20.8v-5.9h0.7v5.9H78.5z M81.6,20.8l-2.4-3l2.3-2.9h0.8l-2.3,2.9l2.4,3.1H81.6z"/>
	<path class="st0" d="M87.4,20.4c-0.4,0.4-1,0.5-1.6,0.5c-0.6,0-1.2-0.2-1.6-0.5c-0.5-0.4-0.7-0.9-0.7-1.7v-3.9h0.7v3.7
		c0,0.7,0.1,0.9,0.3,1.3c0.3,0.3,0.7,0.5,1.2,0.5c0.5,0,0.9-0.2,1.2-0.5c0.3-0.3,0.3-0.5,0.3-1.3v-3.7h0.7v3.9
		C88.1,19.6,87.9,20,87.4,20.4z"/>
	<path class="st0" d="M94.3,20.8h-2.2v-5.9h1.9c0.6,0,0.9,0.1,1.2,0.4c0.3,0.3,0.5,0.7,0.5,1.1c0,0.6-0.4,1.2-1,1.4
		c0.8,0.2,1.2,0.7,1.2,1.5C95.9,20.2,95.3,20.8,94.3,20.8z M94.7,15.7c-0.2-0.2-0.3-0.2-0.8-0.2h-1v1.9h1c0.4,0,0.6-0.1,0.8-0.3
		c0.2-0.2,0.3-0.5,0.3-0.8C94.9,16.1,94.8,15.8,94.7,15.7z M93.9,18.1h-1v2.1h1c0.5,0,0.7-0.1,1-0.2c0.2-0.2,0.3-0.5,0.3-0.8
		C95.2,18.5,94.7,18.1,93.9,18.1z"/>
	<path class="st0" d="M101.3,20.4c-0.4,0.4-1,0.5-1.6,0.5c-0.6,0-1.2-0.2-1.6-0.5c-0.5-0.4-0.7-0.9-0.7-1.7v-3.9H98v3.7
		c0,0.7,0.1,0.9,0.3,1.3c0.3,0.3,0.7,0.5,1.2,0.5c0.5,0,0.9-0.2,1.2-0.5c0.3-0.3,0.3-0.5,0.3-1.3v-3.7h0.7v3.9
		C102,19.6,101.8,20,101.3,20.4z"/>
	<path class="st0" d="M106.2,20.9c-1.7,0-3-1.3-3-3.1c0-1.8,1.3-3.1,3-3.1s3,1.3,3,3.1C109.2,19.6,107.9,20.9,106.2,20.9z
		 M106.2,15.4c-1.2,0-2.2,1.1-2.2,2.4c0,1.3,1,2.4,2.2,2.4c1.2,0,2.2-1.1,2.2-2.4C108.4,16.5,107.4,15.4,106.2,15.4z"/>
	<path class="st0" d="M114.9,20.8v-2.7h-3.5v2.7h-0.7v-5.9h0.7v2.5h3.5v-2.5h0.7v5.9H114.9z"/>
	<path class="st0" d="M121.5,15.9c-0.5-0.3-0.9-0.5-1.5-0.5c-1.3,0-2.2,1-2.2,2.3c0,1.5,0.9,2.5,2.3,2.5c0.5,0,0.9-0.1,1.4-0.3
		l0.2,0.6c-0.4,0.2-0.5,0.2-0.8,0.3c-0.3,0.1-0.5,0.1-0.8,0.1c-1.8,0-3.1-1.3-3.1-3.1c0-1.7,1.3-3.1,3-3.1c0.4,0,0.8,0.1,1.1,0.2
		c0.3,0.1,0.4,0.2,0.7,0.4L121.5,15.9z"/>
	<path class="st0" d="M126.9,15.9c-0.5-0.3-0.9-0.5-1.5-0.5c-1.3,0-2.2,1-2.2,2.3c0,1.5,0.9,2.5,2.3,2.5c0.5,0,0.9-0.1,1.4-0.3
		l0.2,0.6c-0.4,0.2-0.5,0.2-0.8,0.3c-0.3,0.1-0.5,0.1-0.8,0.1c-1.8,0-3.1-1.3-3.1-3.1c0-1.7,1.3-3.1,3-3.1c0.4,0,0.8,0.1,1.1,0.2
		c0.3,0.1,0.4,0.2,0.7,0.4L126.9,15.9z"/>
	<path class="st0" d="M128.5,20.8v-5.9h0.7v5.9H128.5z"/>
	<path class="st0" d="M133,21h-0.5l-2.3-6.1h0.8l1.8,4.6c0,0.1,0.1,0.2,0.1,0.3c0-0.1,0-0.2,0.1-0.3l1.7-4.6h0.7L133,21z"/>
	<path class="st0" d="M136.4,20.8v-5.9h0.7v5.9H136.4z"/>
	<path class="st0" d="M139.1,20.8v-5.9h3.3v0.6h-2.6v2h2.2v0.6h-2.2v2.1h2.7v0.6H139.1z"/>
	<path class="st0" d="M146.9,15.9c-0.3-0.2-0.4-0.2-0.6-0.3c-0.2-0.1-0.6-0.1-0.8-0.1c-0.7,0-1.1,0.3-1.1,0.8c0,0.4,0.3,0.7,1.5,1.3
		c0.4,0.2,0.7,0.4,0.9,0.6c0.3,0.2,0.5,0.6,0.5,1.1c0,1-0.8,1.7-2,1.7c-0.4,0-0.8-0.1-1.1-0.2c-0.2-0.1-0.4-0.2-0.8-0.4l0.4-0.6
		c0.3,0.2,0.5,0.3,0.7,0.4c0.3,0.1,0.5,0.2,0.9,0.2c0.7,0,1.1-0.3,1.1-0.9c0-0.2,0-0.3-0.1-0.4c-0.1-0.2-0.3-0.4-0.5-0.5
		c-0.1-0.1-0.4-0.2-1-0.5c-0.9-0.5-1.3-0.9-1.3-1.6c0-0.9,0.8-1.6,2-1.6c0.3,0,0.7,0,1,0.1c0.2,0.1,0.4,0.2,0.7,0.4L146.9,15.9z"/>
	<path class="st0" d="M151.8,15.9c-0.3-0.2-0.4-0.2-0.6-0.3c-0.2-0.1-0.6-0.1-0.8-0.1c-0.7,0-1.1,0.3-1.1,0.8c0,0.4,0.3,0.7,1.5,1.3
		c0.4,0.2,0.7,0.4,0.9,0.6c0.3,0.2,0.5,0.6,0.5,1.1c0,1-0.8,1.7-2,1.7c-0.4,0-0.8-0.1-1.1-0.2c-0.2-0.1-0.4-0.2-0.8-0.4l0.4-0.6
		c0.3,0.2,0.5,0.3,0.7,0.4c0.3,0.1,0.5,0.2,0.9,0.2c0.7,0,1.1-0.3,1.1-0.9c0-0.2,0-0.3-0.1-0.4c-0.1-0.2-0.3-0.4-0.5-0.5
		c-0.1-0.1-0.4-0.2-1-0.5c-0.9-0.5-1.3-0.9-1.3-1.6c0-0.9,0.8-1.6,2-1.6c0.3,0,0.7,0,1,0.1c0.2,0.1,0.4,0.2,0.7,0.4L151.8,15.9z"/>
	<path class="st0" d="M157.4,20.4c-0.4,0.4-1,0.5-1.6,0.5c-0.6,0-1.2-0.2-1.6-0.5c-0.5-0.4-0.7-0.9-0.7-1.7v-3.9h0.7v3.7
		c0,0.7,0.1,0.9,0.3,1.3c0.3,0.3,0.7,0.5,1.2,0.5c0.5,0,0.9-0.2,1.2-0.5c0.3-0.3,0.3-0.5,0.3-1.3v-3.7h0.7v3.9
		C158.1,19.6,157.9,20,157.4,20.4z"/>
</g>
<path class="st0" d="M35.6,2.8v2.5h3.5v1.6h-3.5V11h-1.9V1.1h6.1v1.6H35.6z"/>
<path class="st0" d="M41.5,11V1.1h1.9V11H41.5z"/>
<path class="st0" d="M52.7,11.1l-4.2-6.4c0,0-0.1-0.2-0.2-0.4c-0.1-0.1-0.1-0.2-0.1-0.2C48,4,48,4,48,3.8V11h-1.8V1.1h2.2l4.2,6.5
	c0,0,0.1,0.1,0.1,0.2c0,0.1,0.1,0.2,0.1,0.2l0.1,0.3l0.1,0.2V1.1h1.8v10H52.7z"/>
<path class="st0" d="M64.1,11.1l-4.2-6.4c0,0-0.1-0.2-0.2-0.4c-0.1-0.1-0.1-0.2-0.1-0.2C59.4,4,59.4,4,59.3,3.8V11h-1.8V1.1h2.2
	l4.2,6.5c0,0,0.1,0.1,0.1,0.2C64,8,64.1,8,64.1,8.1l0.1,0.3l0.1,0.2V1.1H66v10H64.1z"/>
<path class="st0" d="M77.4,11V3.8c-0.1,0.5-0.1,0.6-0.4,1.4L74.8,11h-1.7L71,5.3c-0.2-0.6-0.2-0.7-0.4-1.6V11h-1.7V1.1h2.3l2.6,7.1
	C74,8.5,74,8.6,74,9c0.1-0.5,0.1-0.5,0.2-0.8L77,1.1h2.3V11H77.4z"/>
<path class="st0" d="M87.6,11l-0.8-2.4h-3.3L82.7,11h-2l3.6-9.9H86l3.6,9.9H87.6z M85.1,3.4L84,7h2.3L85.1,3.4z"/>
<path class="st0" d="M96,11l-2.3-4h-0.9v4h-1.9V1.1h3.3c1.4,0,2.1,0.2,2.7,0.7c0.5,0.5,0.8,1.2,0.8,2.1c0,0.8-0.2,1.4-0.5,1.9
	c-0.4,0.5-0.7,0.7-1.5,0.9l2.5,4.2H96z M94.1,2.8h-1.2v2.7h1.2c1.2,0,1.7-0.4,1.7-1.4C95.8,3.1,95.3,2.8,94.1,2.8z"/>
<path class="st0" d="M104.8,11l-3.3-4.7V11h-1.9V1.1h1.9v4.6l3.1-4.6h2.2L103.4,6L107,11H104.8z"/>
<path class="st0" d="M113.7,3.5c-1-0.5-1.9-0.7-2.6-0.7c-0.9,0-1.5,0.4-1.5,0.9c0,0.4,0.2,0.7,0.9,1c1.5,0.8,2.5,1.4,3,1.9
	c0.4,0.4,0.7,1.1,0.7,1.8c0,1.8-1.3,2.8-3.5,2.8c-0.3,0-0.6,0-0.9-0.1c-0.7-0.1-1-0.2-2.1-0.7c-0.1-0.1-0.4-0.2-0.6-0.3l0.8-1.7
	c0.7,0.4,1,0.5,1.4,0.7c0.5,0.2,1,0.3,1.4,0.3c0.9,0,1.4-0.4,1.4-1c0-0.4-0.2-0.7-0.9-1.1l-1.5-0.9c-1.8-1-2.3-1.7-2.3-2.7
	c0-0.5,0.1-1,0.4-1.4c0.2-0.3,0.4-0.5,0.7-0.7c0.7-0.5,1.3-0.7,2.5-0.7c0.7,0,1.2,0.1,1.9,0.3c0.5,0.1,0.8,0.3,1.4,0.6L113.7,3.5z"
	/>
<path class="st0" d="M121.7,3.5c-1-0.5-1.9-0.7-2.6-0.7c-0.9,0-1.5,0.4-1.5,0.9c0,0.4,0.2,0.7,0.9,1c1.5,0.8,2.5,1.4,3,1.9
	c0.4,0.4,0.7,1.1,0.7,1.8c0,1.8-1.3,2.8-3.5,2.8c-0.3,0-0.6,0-0.9-0.1c-0.7-0.1-1-0.2-2.1-0.7c-0.1-0.1-0.4-0.2-0.6-0.3l0.8-1.7
	c0.7,0.4,1,0.5,1.4,0.7c0.5,0.2,1,0.3,1.4,0.3c0.9,0,1.4-0.4,1.4-1c0-0.4-0.2-0.7-0.9-1.1l-1.5-0.9c-1.8-1-2.3-1.7-2.3-2.7
	c0-0.5,0.1-1,0.4-1.4c0.2-0.3,0.4-0.5,0.7-0.7c0.7-0.5,1.3-0.7,2.5-0.7c0.7,0,1.2,0.1,1.9,0.3c0.5,0.1,0.8,0.3,1.4,0.6L121.7,3.5z"
	/>
<path class="st0" d="M127.9,6.8V11H126V6.8l-3-5.7h2.1l2,3.9l2.1-3.9h2.1L127.9,6.8z"/>
<path class="st0" d="M137.6,11l-3.3-4.7V11h-1.9V1.1h1.9v4.6l3.1-4.6h2.2L136.2,6l3.6,5.1H137.6z"/>
<path class="st0" d="M141.1,11V1.1h6v1.6H143v2.4h3.4v1.6H143v2.6h4.3V11H141.1z"/>
<path class="st0" d="M156.2,11V6.8h-5.1V11h-1.9V1.1h1.9v4h5.1v-4h1.9V11H156.2z"/>
<path class="st0" d="M167.4,10.5c-0.7,0.5-1.6,0.7-2.8,0.7c-1.2,0-2.1-0.2-2.8-0.7c-1-0.7-1.4-1.5-1.4-3.3v-6h1.9v6.1
	c0,1.5,0.8,2.2,2.3,2.2c1.4,0,2.2-0.8,2.2-2.2V1.1h1.9v6C168.8,9,168.5,9.8,167.4,10.5z"/>
<path class="st0" d="M176.7,3.5c-1-0.5-1.9-0.7-2.6-0.7c-0.9,0-1.5,0.4-1.5,0.9c0,0.4,0.2,0.7,0.9,1c1.5,0.8,2.5,1.4,3,1.9
	c0.4,0.4,0.7,1.1,0.7,1.8c0,1.8-1.3,2.8-3.5,2.8c-0.3,0-0.6,0-0.9-0.1c-0.7-0.1-1-0.2-2.1-0.7c-0.1-0.1-0.4-0.2-0.6-0.3l0.8-1.7
	c0.7,0.4,1,0.5,1.4,0.7c0.5,0.2,1,0.3,1.4,0.3c0.9,0,1.4-0.4,1.4-1c0-0.4-0.2-0.7-0.9-1.1l-1.5-0.9c-1.8-1-2.3-1.7-2.3-2.7
	c0-0.5,0.1-1,0.4-1.4c0.2-0.3,0.4-0.5,0.7-0.7c0.7-0.5,1.3-0.7,2.5-0.7c0.7,0,1.2,0.1,1.9,0.3c0.5,0.1,0.8,0.3,1.4,0.6L176.7,3.5z"
	/>
<path class="st0" d="M179.3,11V1.1h6v1.6h-4.1v2.4h3.4v1.6h-3.4v2.6h4.3V11H179.3z"/>
<path class="st0" d="M191,2.8V11h-1.9V2.8h-3V1.1h7.8v1.6H191z"/>
<g>
	<g>
		<circle class="st0" cx="12.8" cy="4.2" r="3.1"/>
		<circle class="st1" cx="12.8" cy="13.8" r="3.1"/>
		<circle class="st1" cx="3.1" cy="13.8" r="3.1"/>
		<circle class="st1" cx="22.4" cy="13.8" r="3.1"/>
		<circle class="st1" cx="12.8" cy="23.4" r="3.1"/>
	</g>
	<rect x="206.4" y="0.9" class="st0" width="1.5" height="25.4"/>
	<path class="st2" d="M239.3,10.8C239.3,10.8,239.3,10.8,239.3,10.8c0,0,0,0.1,0.1,0.1C239.4,11,239.3,11,239.3,10.8z M238,8.6
		C238,8.6,238,8.6,238,8.6c0.3,0.3,0.5,0.6,0.7,0.9c0.1,0.3,0.3,0.5,0.4,0.7l0,0c0,0.1,0,0.1,0,0.1c-0.1-0.2-0.2-0.5-0.4-0.8
		C238.5,9.2,238.3,8.9,238,8.6 M240.2,14.1c0.1,0,0.2,0.1,0.2,0c0,0,0.1-0.1,0.1-0.1c0,0,0.1,0,0.1,0c0-0.1,0-0.1,0-0.2
		c0.1,0.1,0.4,0.2,0.4-0.1c0.1,0,0.1-0.1,0.2-0.1c0.1,0,0.3,0,0.5,0c0.1,0,0.2,0,0.3,0l0.1,0c0.7,0,1.1,0.2,1.8,0
		c1.3-0.4,2.7,0.2,3,0.2l0.1-0.1c-0.2-0.2-0.9-0.2-1.2-0.3c-0.1,0-0.2,0-0.3-0.1c-0.1,0,0.1,0,0.3,0.1c0.1,0,0.2,0,0.3,0
		c-0.2-0.1-0.3-0.2-0.4-0.3l-0.2,0c-0.4,0-0.7,0-1-0.1c-0.1,0-0.4,0-0.5-0.1l1.5,0.1l0,0l-0.8-0.1c0.1,0,0.2,0,0.4,0l0.3,0
		c0.1,0,0.1,0,0.2,0.1l0.1,0l0,0l0,0c-0.1-0.2-1.1-0.4-1.3-0.4c-0.1,0-0.3,0.2-0.4,0.2c0,0-0.1,0-0.1,0l0,0.1c-0.1,0-0.2-0.1-0.3,0
		c-0.1,0-0.2-0.3-0.2-0.3c0,0.2,0,0.1-0.1,0c0,0-0.1,0.1-0.1,0.1c-0.1-0.1-0.1,0-0.3,0.1c-0.2,0.1-0.2-0.1-0.4,0.1
		c0,0-0.3,0.1-0.3,0.1c-0.2,0-0.3,0.1-0.5-0.1c-0.2,0.2-0.4,0-0.6,0c-0.2,0-0.3-0.1-0.4-0.2c0,0-0.1,0-0.1,0c0,0-0.1,0.1-0.1,0
		l0-0.1l-0.1,0c0,0,0,0,0-0.1c0,0,0-0.1,0-0.1l-0.2-0.1l-0.1,0c-0.1-0.4-0.2-0.8-0.3-1.2c0.1,0,0.3,0,0.3-0.1c0,0,0.1-0.1,0.1-0.1
		c0,0,0.1,0,0.1,0c0-0.1,0-0.1,0-0.2c0.1,0,0.4,0,0.3-0.2c0.1,0,0.1-0.1,0.1-0.2c0.1-0.1,0.2-0.1,0.4-0.2c0.1,0,0.1-0.1,0.2-0.1
		l0.1,0c0.5-0.2,1-0.2,1.4-0.6c0.9-0.7,2.3-0.8,2.5-0.8l0-0.1c-0.2-0.1-0.8,0.1-1.1,0.1c-0.1,0-0.2,0-0.2,0c-0.1,0,0.1,0,0.2,0
		c0.1,0,0.2,0,0.3-0.1c-0.2,0-0.3,0-0.4-0.1l-0.2,0.1c-0.3,0.1-0.6,0.2-0.9,0.3c-0.1,0-0.3,0.1-0.5,0.1l1.3-0.5h0L243,8.8l0.3-0.1
		l0.2,0c0.1,0,0.1,0,0.2,0l0.1,0l0,0l0,0c-0.1-0.1-1.1,0-1.2,0.1c-0.1,0.1-0.2,0.2-0.3,0.3c0,0-0.1,0-0.1,0l0,0.1
		c-0.1,0-0.2,0-0.2,0.1c0,0-0.3-0.2-0.3-0.2c0.1,0.2,0,0.1-0.1,0.1c0,0,0,0.1,0,0.1c-0.1,0-0.1,0.1-0.2,0.1c-0.1,0.1-0.2,0-0.3,0.2
		c0,0-0.2,0.2-0.2,0.2c-0.2,0-0.2,0.2-0.4,0.1c-0.1,0.2-0.3,0.1-0.5,0.2c-0.1,0.1-0.2,0-0.4,0c0,0-0.1,0-0.1,0c0,0-0.1,0.1-0.1,0.1
		l0-0.1l-0.1,0c0,0,0,0,0,0c0,0,0-0.1-0.1-0.1l-0.2,0c-0.1-0.1-0.1-0.2-0.2-0.4c-0.1-0.3-0.3-0.5-0.5-0.7c0.1,0,0.2-0.1,0.2-0.1
		c0,0,0-0.1,0-0.1c0,0,0.1,0,0.1,0c0-0.1-0.1-0.1-0.1-0.1c0.1,0,0.3-0.1,0.2-0.3c0.1,0,0-0.1,0.1-0.2c0.1-0.1,0.2-0.2,0.3-0.3
		l0.2-0.2l0.1-0.1c0.4-0.4,0.8-0.6,1.1-1.1c0.5-1,1.7-1.5,2-1.6l0-0.1c-0.3,0-0.7,0.4-0.9,0.5c-0.1,0.1-0.1,0.1-0.2,0.1
		c0,0,0,0,0.2-0.1c0.1,0,0.1-0.1,0.2-0.2c-0.2,0-0.3,0.1-0.4,0.1l-0.2,0.1c-0.2,0.2-0.4,0.4-0.7,0.6c-0.1,0.1-0.3,0.2-0.4,0.3l1-0.9
		l0,0l-0.5,0.4l0.2-0.2l0.2-0.1c0,0,0.1,0,0.2-0.1l0.1-0.1l0,0l0,0c-0.2-0.1-0.9,0.4-1,0.5c-0.1,0.1-0.1,0.3-0.1,0.4
		c0,0-0.1,0-0.1,0.1l0,0.1c-0.1,0.1-0.2,0.1-0.2,0.2c0,0-0.3-0.1-0.3,0c0.1,0.2,0,0-0.1,0.1c0,0,0,0.1,0,0.1c-0.1,0-0.1,0.1-0.1,0.2
		c-0.1,0.2-0.2,0.1-0.2,0.3c0,0-0.1,0.2-0.1,0.2c-0.1,0.1-0.1,0.2-0.3,0.2c0,0.2-0.3,0.2-0.4,0.3c-0.1,0.1-0.2,0.1-0.4,0.1
		c0,0-0.1,0-0.1,0c0,0,0,0.1-0.1,0.1l0,0l0,0c0,0,0,0,0,0c0,0,0-0.1-0.1-0.1l-0.1,0c-0.4-0.3-0.7-0.6-1.1-0.8
		c0.1-0.1,0.2-0.1,0.2-0.2c0,0,0-0.1,0-0.1c0,0,0,0,0.1,0c0,0-0.1-0.1-0.2-0.1c0.1-0.1,0.3-0.2,0.1-0.3c0-0.1-0.1-0.1,0-0.2
		c0-0.1,0.1-0.2,0.1-0.4c0-0.1,0.1-0.1,0.1-0.2l0-0.1c0.2-0.5,0.5-0.8,0.6-1.4c0.1-1.1,1.1-2,1.3-2.2l0-0.1
		c-0.3,0.1-0.5,0.6-0.7,0.8c-0.1,0.1-0.1,0.1-0.2,0.2c0,0,0-0.1,0.2-0.2c0-0.1,0.1-0.1,0.2-0.2c-0.1,0.1-0.3,0.2-0.4,0.2l-0.1,0.2
		c-0.2,0.3-0.3,0.5-0.4,0.7c-0.1,0.1-0.2,0.3-0.2,0.4l0.6-1.1l0,0L237,3.1l0.1-0.3l0.1-0.2c0,0,0.1-0.1,0.1-0.1l0.1-0.1l0,0l0,0
		c-0.2,0-0.8,0.7-0.8,0.8c0,0.1,0.1,0.3,0,0.4c0,0-0.1,0.1,0,0.1l0,0.1c0,0.1-0.1,0.1-0.1,0.2c0,0.1-0.4,0-0.3,0
		c0.2,0.1,0.1,0,0,0.1c0,0,0.1,0.1,0,0.1c-0.1,0.1,0,0.1,0,0.2c0,0.2-0.1,0.1-0.1,0.3c0,0,0,0.2,0,0.2c-0.1,0.1,0,0.3-0.2,0.3
		c0.1,0.2-0.2,0.3-0.2,0.4c0,0.2-0.2,0.2-0.3,0.2c0,0,0,0.1-0.1,0.1c0,0,0,0.1,0,0.1l-0.1,0l0,0c0,0,0,0,0,0c0,0-0.1,0-0.1,0
		L235,6.2c-0.4-0.1-0.8-0.2-1.1-0.3c0,0,0-0.1,0-0.1c0,0,0-0.1-0.1-0.1c0,0,0-0.1,0-0.1c0,0-0.1,0-0.1,0c0-0.1,0.1-0.3,0-0.3
		c0-0.1-0.1-0.1-0.1-0.2c0-0.1,0-0.3,0-0.4l0-0.2l0-0.1c0-0.6,0.1-1,0-1.6c-0.2-1.1,0.1-2.4,0.1-2.7L233.6,0
		c-0.1,0.2-0.1,0.8-0.2,1.1c0,0.1,0,0.2,0,0.2c0,0.1,0-0.1,0-0.2c0-0.1,0-0.2,0-0.3c-0.1,0.1-0.1,0.3-0.2,0.4l0,0.2
		c0,0.3,0,0.6-0.1,0.9c0,0.1,0,0.4,0,0.5l0-1.4l0,0l-0.1,0.7l0-0.3l0-0.2c0-0.1,0-0.1,0-0.2l0-0.1l0,0l0,0c-0.1,0.1-0.3,1-0.2,1.1
		c0,0.1,0.1,0.2,0.1,0.4c0,0,0,0.1,0,0.1l0,0c0,0.1,0,0.2,0,0.2c0,0-0.2,0.2-0.2,0.2c0.2,0,0,0,0,0.1c0,0,0.1,0.1,0.1,0.1
		c0,0.1,0,0.1,0,0.2c0,0.2-0.1,0.2,0,0.3c0,0,0.1,0.2,0.1,0.2c0,0.2,0.1,0.3,0,0.4c0.1,0.2,0,0.4,0,0.5c0,0.2-0.1,0.2-0.1,0.4
		c0,0,0,0.1,0,0.1c0,0,0,0.1,0,0.1c0,0,0,0,0,0l-0.6,0.2c0.1,0,0.2,0.1,0.4,0.1v0l0.1,0.2l0.1,0l0,0.1l0.1,0c0.1,0,0.2,0.1,0.3,0.1
		c0,0,0-0.1,0.1-0.2c0,0,0.1,0,0.1,0c0-0.1,0-0.1,0.1,0l0,0c0.5,0.1,1.1,0.2,1.8,0.5c0.1,0.1,0.2,0.1,0.3,0.2c0,0,0,0,0.1,0
		c0.6,0.3,1.1,0.6,1.6,1.1l0,0l0,0c0,0,0,0,0,0c0,0,0,0,0,0l0,0c0,0,0.1,0.1,0.1,0.1c0.1,0.1,0.2,0.3,0.3,0.4c0,0,0,0,0,0
		c0.4,0.5,0.6,1.1,0.7,1.5c0.2,0.4,0.4,0.8,0.5,1.2c0.6,1.8,0.8,3.9-0.2,5.5c-0.3,0.7-1.4,1.7-2,1.9c2.5-1.3,3-4.6,2-7.2
		c0,0.1,0,0.2,0.1,0.2c0.4,1.4,0.5,2.9,0,4.2c-0.1,0.2-0.2,0.4-0.3,0.7c0.1-0.2,0.2-0.4,0.3-0.7c0.2-0.6,0.2-1.2,0.2-1.9
		c0-0.4,0-0.9-0.1-1.3l-0.1-1c-0.1-0.2-0.1-0.4-0.2-0.6l-0.1-0.2l0,0c-0.1,0.3,0.3,1.8,0.2,3.3c-0.1,1.5-0.9,2.6-1.1,2.9
		c-0.3,0.5-0.6,1.1-1.2,1.5c-0.2,0.1-0.4,0.1-0.6,0.3c0,0-0.1,0.1-0.2,0.2c-0.5,0.2-1,0.1-1.4,0.3c-0.3,0.1-1.1-0.6-1.1-0.5
		c-0.2,0.4-0.1,0.1-0.7,0c-0.1,0-0.3,0.1-0.5,0.1c-0.5-0.2-0.7-0.1-1.3-0.2c-0.9-0.2-0.9-0.5-1.7-0.8c-0.1,0-1.2-0.7-1.2-0.8
		c-0.6-0.8-1.1-1.3-1-2.1c-0.5-0.8-0.1-2.1,0.1-3c0.2-0.9,0.7-1.2,1.3-1.7c0.2-0.1,0.3-0.3,0.4-0.3c0.1-0.1,0.2-0.4,0.4-0.5l0,0.1
		c0.1,0,0.2-0.1,0.2-0.1c0.1,0,0.1,0,0.1,0.1c0,0.1,0,0.2,0.2,0.2c0.3-0.1,0.5-0.1,0.8-0.2c0.2-0.1,0.5-0.3,0.7-0.4
		c0-0.1,0-0.1,0.1-0.2l0.2-0.1c0-0.1,0-0.3,0.1-0.4c0-0.4,0.4-0.7,0.3-1c0-0.1-0.7-0.1-1-0.2c-0.1,0,0.1-0.2,0.1-0.3
		c-0.4,0-0.5-0.1-0.3-0.2c-0.1,0-0.1,0-0.2,0c0,0,0,0,0.1,0l0,0c0,0,0.1,0,0.1,0c0-0.2,0.1-0.4-0.1-0.5c0,0-0.1,0-0.1-0.1
		c0,0,0-0.1,0-0.1c-0.1,0-0.1,0-0.2,0c0-0.1,0-0.4-0.2-0.3c0-0.1-0.1-0.1-0.2-0.1c-0.1-0.1-0.1-0.2-0.2-0.3l-0.1-0.2l0-0.1
		c-0.3-0.5-0.3-1-0.7-1.4c-0.8-0.9-0.9-2.2-0.9-2.5l-0.1,0c-0.1,0.2,0.2,0.8,0.2,1.1c0,0.1,0,0.2,0.1,0.2c0,0.1,0-0.1-0.1-0.2
		c0-0.1-0.1-0.2-0.1-0.3c0,0.2,0,0.3,0,0.4l0.1,0.2c0.1,0.3,0.2,0.6,0.3,0.8c0,0.1,0.1,0.3,0.1,0.4l-0.5-1.2l0,0l0.2,0.7l-0.2-0.3
		L228.1,3c0-0.1,0-0.1,0-0.2l0-0.1l0,0l0,0c-0.1,0.1,0.1,1,0.2,1.2c0.1,0.1,0.2,0.1,0.3,0.2c0,0,0,0.1,0,0.1l0.1,0
		c0,0.1,0,0.2,0.1,0.2c0,0-0.2,0.3-0.1,0.3c0.2-0.1,0.1,0,0.1,0.1c0,0,0.1,0,0.1,0c0,0.1,0.1,0.1,0.1,0.2c0.1,0.1,0,0.2,0.2,0.3
		c0,0,0.2,0.2,0.2,0.2c0.1,0.2,0.2,0.2,0.1,0.4c0.2,0.1,0.1,0.3,0.2,0.5c0.1,0.1,0,0.2,0,0.4c0,0,0,0.1,0,0.1
		c-0.7,0.1-1.4,0.4-2,0.9c-0.1,0-0.1,0-0.2,0c-0.1-0.1-0.2-0.2-0.3-0.3L227,7.2l-0.1-0.1c-0.4-0.4-0.6-0.8-1.1-1.1
		c-1-0.6-1.6-1.8-1.8-2l-0.1,0c0,0.3,0.4,0.7,0.6,1c0.1,0.1,0.1,0.2,0.1,0.2c0,0,0,0-0.1-0.2c0-0.1-0.1-0.1-0.2-0.2
		c0,0.2,0.1,0.3,0.1,0.4l0.1,0.2c0.2,0.2,0.4,0.5,0.6,0.7c0.1,0.1,0.2,0.3,0.3,0.4l-0.9-1l0,0l0.4,0.6l-0.2-0.2l-0.1-0.2
		c0,0-0.1-0.1-0.1-0.2l-0.1-0.1l0,0v0c0,0.2,0.4,1,0.6,1c0.1,0.1,0.3,0.1,0.4,0.1c0,0,0,0.1,0.1,0.1l0.1,0c0.1,0.1,0.1,0.2,0.2,0.2
		c0,0-0.1,0.3,0,0.3c0.2-0.1,0,0,0.1,0.1c0,0,0.1,0,0.1,0c0,0.1,0.1,0.1,0.2,0.1c0.2,0.1,0.1,0.2,0.3,0.2c0,0,0.2,0.1,0.2,0.1
		c0.1,0.1,0.3,0.1,0.2,0.3c0.2,0,0.2,0.2,0.3,0.3c-0.1,0.2-0.3,0.5-0.4,0.7c-0.1,0.1-0.3,0.3-0.4,0.4c0,0.2,0.1,0.3,0.2,0.4
		c-0.1,0.1-0.2,0.2-0.3,0.4c-0.1-0.1-0.2-0.1-0.2,0c-0.1,0-0.1,0-0.2,0c-0.1,0-0.3-0.1-0.4-0.2l-0.2-0.1l-0.1,0
		c-0.5-0.3-0.9-0.6-1.5-0.7c-1.2-0.2-2.1-1.3-2.4-1.4l-0.1,0c0.1,0.3,0.6,0.6,0.9,0.8c0.1,0.1,0.2,0.1,0.2,0.2c0,0-0.1,0-0.2-0.2
		c-0.1,0-0.1-0.1-0.2-0.2c0.1,0.1,0.2,0.3,0.2,0.4l0.2,0.1c0.3,0.2,0.6,0.3,0.8,0.5c0.1,0.1,0.3,0.2,0.4,0.3l-1.2-0.7l0,0l0.6,0.4
		l-0.3-0.1l-0.2-0.1c-0.1,0-0.1-0.1-0.1-0.1l-0.1-0.1l0,0v0c0,0.2,0.7,0.8,0.9,0.8c0.1,0,0.3,0,0.4,0c0,0,0.1,0.1,0.1,0.1l0.1,0
		c0.1,0,0.1,0.1,0.2,0.1c0.1,0,0,0.3,0.1,0.3c0.1-0.2,0,0,0.1,0c0,0,0.1,0,0.1,0c0.1,0.1,0.1,0,0.2,0.1c0.2,0,0.1,0.2,0.3,0.1
		c0,0,0.3,0,0.3,0c0.1,0.1,0.3,0.1,0.3,0.2c0.2,0,0.3,0.2,0.5,0.2c0,0,0.1,0,0.1,0c-0.3,0.6-0.4,1.1-0.1,1.1
		c-0.1,0.3-0.1,0.4-0.1,0.6c0,0.1,0,0.1,0,0.2c-0.1-0.1-0.4-0.2-0.4,0.1c-0.1,0-0.1,0.1-0.2,0.1c-0.1,0-0.3,0-0.5,0
		c-0.1,0-0.2,0-0.3,0l-0.1,0c-0.6,0-1.1-0.2-1.7,0c-1.3,0.4-2.7-0.2-3-0.2l-0.1,0.1c0.2,0.2,0.9,0.2,1.2,0.3c0.1,0,0.2,0,0.3,0.1
		c0.1,0-0.1,0-0.3-0.1c-0.1,0-0.2,0-0.3,0c0.2,0.1,0.3,0.2,0.4,0.3l0.2,0c0.3,0,0.7,0,1,0.1c0.1,0,0.4,0,0.5,0.1l-1.5-0.1l0,0
		l0.8,0.1c-0.1,0-0.2,0-0.4,0l-0.2,0c-0.1,0-0.1,0-0.2-0.1l-0.1,0l0,0l0,0c0.1,0.2,1.1,0.4,1.3,0.4c0.1,0,0.3-0.2,0.4-0.2
		c0,0,0.1,0,0.1,0l0-0.1c0.1,0,0.2,0.1,0.3,0c0.1,0,0.2,0.3,0.2,0.3c0-0.2,0-0.1,0.1,0c0,0,0.1-0.1,0.1-0.1c0.1,0.1,0.1,0,0.2,0
		c0.2-0.1,0.2,0.1,0.4-0.1c0,0,0.3-0.1,0.3-0.1c0.2,0,0.3-0.1,0.4,0.1c0.2-0.1,0.4,0,0.6,0c0.2,0,0.2,0.1,0.4,0.2
		c0,0.6,0.1,1.4,0.3,2c-0.1,0-0.3,0-0.2,0.2c-0.1,0-0.1,0.1-0.2,0.2c-0.1,0.1-0.3,0.1-0.4,0.2c-0.1,0-0.1,0.1-0.2,0.1l-0.1,0
		c-0.6,0.2-1.1,0.2-1.5,0.6c-1,0.7-2.4,0.7-2.7,0.7l-0.1,0.1c0.3,0.1,0.9-0.1,1.2-0.1c0.1,0,0.2,0,0.3,0c0.1,0-0.1,0-0.3,0
		c-0.1,0-0.2,0-0.3,0.1c0.2,0,0.3,0.1,0.4,0.1l0.2-0.1c0.3-0.1,0.6-0.2,0.9-0.2c0.1,0,0.4-0.1,0.5-0.1l-1.4,0.4l0,0l0.7-0.2
		c-0.1,0-0.2,0.1-0.3,0.1l-0.2,0c-0.1,0-0.1,0-0.2,0l-0.1,0l0,0l0,0c0.1,0.1,1.1,0,1.3,0c0.1-0.1,0.2-0.2,0.3-0.3c0,0,0.1,0,0.1,0
		l0-0.1c0.1,0,0.2,0,0.2-0.1c0,0,0.3,0.2,0.3,0.2c0-0.2,0-0.1,0.1-0.1c0,0,0-0.1,0.1-0.1c0.1,0,0.1-0.1,0.2-0.1
		c0.1-0.1,0.2,0,0.3-0.2c0,0,0.2-0.2,0.2-0.2c0.2,0,0.2-0.2,0.4-0.1c0.1-0.2,0.4-0.1,0.5-0.2c0.1-0.1,0.2,0,0.3,0
		c0.2,0.3,0.4,0.6,0.6,0.9l0.4,0.5c0.1,0.1,0.1,0.1,0.2,0.2c0,0,0,0-0.1,0c0,0.1,0.1,0.1,0.1,0.2c-0.1,0-0.4,0.1-0.2,0.3
		c-0.1,0.1,0,0.1-0.1,0.2c-0.1,0.1-0.2,0.2-0.3,0.3l-0.2,0.2l-0.1,0.1c-0.4,0.5-0.9,0.6-1.2,1.2c-0.6,1.1-1.9,1.7-2.1,1.9l0,0.1
		c0.3,0,0.8-0.4,1-0.6c0.1-0.1,0.2-0.1,0.2-0.1c0.1,0-0.1,0-0.2,0.1c-0.1,0-0.1,0.1-0.2,0.2c0.2,0,0.3-0.1,0.4-0.1L225,22
		c0.3-0.2,0.5-0.4,0.7-0.6c0.1-0.1,0.3-0.3,0.4-0.3l-1,1l0,0l0.6-0.5l-0.2,0.3l-0.2,0.1c0,0-0.1,0.1-0.2,0.1l-0.1,0.1l0,0l0,0
		c0.2,0.1,1-0.5,1.1-0.6c0.1-0.1,0.1-0.3,0.1-0.4c0,0,0.1,0,0.1-0.1l0-0.1c0.1-0.1,0.2-0.1,0.2-0.2c0-0.1,0.4,0.1,0.3,0
		c-0.1-0.2,0-0.1,0.1-0.1c0,0,0-0.1,0-0.1c0.1,0,0.1-0.1,0.1-0.2c0.1-0.2,0.2-0.1,0.2-0.3c0,0,0.1-0.3,0.1-0.3
		c0.1-0.1,0.1-0.3,0.3-0.3c0-0.2,0.3-0.3,0.4-0.4c0.1-0.1,0.2-0.1,0.4-0.1c0,0,0.1,0,0.1,0c0.4,0.3,0.9,0.6,1.4,0.9c0,0,0,0.1,0,0.1
		c0,0,0,0-0.1,0.1c0.1,0,0.1,0.1,0.2,0.1c-0.1,0.1-0.3,0.2-0.1,0.3c0,0.1,0.1,0.1,0,0.2c0,0.1-0.1,0.3-0.1,0.4
		c0,0.1-0.1,0.2-0.1,0.2l0,0.1c-0.2,0.6-0.6,0.9-0.6,1.5c-0.1,1.3-1.2,2.2-1.4,2.5l0.1,0.1c0.3-0.1,0.6-0.7,0.8-0.9
		c0.1-0.1,0.1-0.2,0.2-0.2c0,0,0,0.1-0.2,0.2c0,0.1-0.1,0.2-0.2,0.3c0.2-0.1,0.3-0.2,0.4-0.2l0.1-0.2c0.2-0.3,0.3-0.6,0.5-0.8
		c0.1-0.1,0.2-0.3,0.3-0.4l-0.6,1.3l0,0l0.4-0.6l-0.1,0.3c0,0.1-0.1,0.1-0.1,0.2c0,0.1-0.1,0.1-0.1,0.1l-0.1,0.1l0,0h0
		c0.2,0,0.9-0.8,0.9-0.9c0-0.1-0.1-0.3,0-0.4c0,0,0.1-0.1,0-0.1l0-0.1c0-0.1,0.1-0.1,0.1-0.2c0-0.1,0.4,0,0.4-0.1
		c-0.2-0.1-0.1,0,0-0.1c0,0-0.1-0.1-0.1-0.1c0.1-0.1,0-0.1,0-0.2c0-0.2,0.2-0.1,0.1-0.4c0,0,0-0.3,0-0.3c0.1-0.2,0-0.3,0.2-0.4
		c-0.1-0.2,0.2-0.3,0.2-0.5c0-0.2,0.2-0.2,0.4-0.3c0,0,0-0.1,0.1-0.1c0,0,0,0,0,0c0.5,0.1,1,0.2,1.5,0.3c0,0,0,0.1,0,0.1
		c0,0,0,0.1,0,0.1c0,0,0.1,0,0.1,0c0,0.1-0.1,0.4,0,0.4c0,0.1,0.1,0.1,0.1,0.2c0,0.1,0,0.3,0,0.4l0,0.3l0,0.1c0,0.6-0.1,1.1,0,1.7
		c0.2,1.2-0.1,2.6-0.1,2.9L233,27c0.1-0.2,0.1-0.9,0.2-1.2c0-0.1,0-0.2,0-0.3c0-0.1,0,0.1,0,0.3c0,0.1,0,0.2,0,0.3
		c0.1-0.1,0.1-0.3,0.2-0.4l0-0.2c0-0.3,0-0.7,0.1-1c0-0.1,0-0.4,0-0.5l0,1.5l0,0l0.1-0.8l0,0.4l0,0.2c0,0.1,0,0.1,0,0.2l0,0.1l0,0
		l0,0c0.1-0.1,0.3-1.1,0.2-1.2c0-0.1-0.1-0.2-0.1-0.4c0,0,0-0.1,0-0.1l0,0c0-0.1,0-0.2,0-0.3c0-0.1,0.2-0.2,0.2-0.2
		c-0.2,0,0,0,0-0.1c0,0-0.1-0.1-0.1-0.1c0-0.1,0-0.1,0-0.2c0-0.2,0-0.2,0-0.4c0,0-0.1-0.3-0.1-0.3c0-0.2-0.1-0.3,0-0.4
		c-0.1-0.2,0-0.4,0-0.6c0-0.2,0.1-0.3,0.1-0.4c0,0,0-0.1,0-0.1c0.7,0,1.5-0.1,2.3-0.4c0,0,0.1,0,0.1,0c0,0,0,0.1,0,0.1
		c0.1,0,0.1-0.1,0.2-0.1c0,0.1,0,0.4,0.2,0.3c0,0.1,0.1,0,0.2,0.1c0.1,0.1,0.2,0.2,0.3,0.3c0.1,0.1,0.1,0.1,0.1,0.2l0,0.1
		c0.3,0.5,0.4,1,0.9,1.4c1,0.8,1.1,2.2,1.2,2.5l0.1,0c0.1-0.3-0.2-0.8-0.3-1.1c0-0.1-0.1-0.2-0.1-0.3c0-0.1,0,0.1,0.1,0.3
		c0,0.1,0.1,0.2,0.1,0.3c0-0.2,0-0.3,0-0.5l-0.1-0.2c-0.1-0.3-0.3-0.6-0.4-0.9c0-0.1-0.2-0.3-0.2-0.5l0.7,1.2l0,0l-0.3-0.7
		c0.1,0.1,0.1,0.2,0.2,0.3l0.1,0.2c0,0.1,0,0.1,0,0.2l0,0.1l0,0l0,0c0.1-0.2-0.1-1.1-0.2-1.2c-0.1-0.1-0.3-0.1-0.4-0.2
		c0,0,0-0.1-0.1-0.1l-0.1,0c-0.1-0.1,0-0.2-0.1-0.2c-0.1,0,0.2-0.3,0.1-0.3c-0.2,0.1-0.1,0-0.1-0.1c0,0-0.1,0-0.1,0
		c0-0.1-0.1-0.1-0.2-0.2c-0.2-0.1,0-0.2-0.2-0.2c0,0-0.2-0.1-0.2-0.1c-0.1-0.2-0.2-0.2-0.2-0.4c-0.2-0.1-0.2-0.3-0.3-0.5
		c-0.1-0.1-0.1-0.2,0-0.3c0.1,0,0.2-0.1,0.3-0.1c0.5-0.3,0.9-0.7,1.2-1.1c0,0,0,0,0,0c0.1,0,0.1-0.1,0.1-0.1c0,0.1,0.1,0.4,0.3,0.2
		c0.1,0.1,0.1,0,0.2,0.1c0.1,0.1,0.2,0.2,0.3,0.3l0.2,0.2l0.1,0.1c0.4,0.4,0.6,0.8,1.2,1.1c1.1,0.6,1.6,1.9,1.8,2.1l0.1,0
		c0-0.3-0.4-0.7-0.6-1c-0.1-0.1-0.1-0.2-0.1-0.2c0,0,0,0.1,0.1,0.2c0,0.1,0.1,0.1,0.2,0.2c0-0.2-0.1-0.3-0.1-0.4l-0.1-0.2
		c-0.2-0.2-0.4-0.5-0.6-0.7c-0.1-0.1-0.2-0.3-0.3-0.4l1,1l0,0l-0.5-0.6l0.3,0.2l0.1,0.2c0,0,0.1,0.1,0.1,0.2l0.1,0.1l0,0v0
		c0-0.2-0.5-1-0.6-1.1c-0.1-0.1-0.3-0.1-0.4-0.1c0,0,0-0.1-0.1-0.1l-0.1,0c-0.1-0.1-0.1-0.2-0.2-0.2c-0.1,0,0.1-0.3,0-0.3
		c-0.2,0.1,0,0-0.1-0.1c0,0-0.1,0-0.1,0c0-0.1-0.1-0.1-0.2-0.1c-0.2-0.1-0.1-0.2-0.3-0.2c0,0-0.2-0.1-0.2-0.1
		c-0.1-0.1-0.3-0.1-0.3-0.3c-0.2,0-0.2-0.3-0.4-0.4c-0.1-0.1-0.1-0.2-0.2-0.4c0,0,0-0.1,0-0.1c0,0,0,0,0,0c0.2-0.4,0.4-0.8,0.6-1.3
		c0,0,0,0,0,0c0,0,0.1,0,0.1,0c0,0,0,0,0.1,0c0,0,0.1-0.1,0.1-0.2c0.1,0.1,0.3,0.3,0.3,0.1c0.1,0,0.1,0,0.2,0c0.1,0,0.3,0.1,0.4,0.1
		l0.2,0.1l0.1,0c0.6,0.2,0.9,0.5,1.5,0.5c1.2,0.1,2.2,1,2.5,1.1l0.1,0c-0.1-0.2-0.7-0.5-0.9-0.7c-0.1-0.1-0.2-0.1-0.2-0.1
		c0,0,0.1,0,0.2,0.1c0.1,0,0.2,0.1,0.3,0.1c-0.1-0.1-0.2-0.2-0.3-0.3l-0.2-0.1c-0.3-0.1-0.6-0.3-0.8-0.4c-0.1-0.1-0.3-0.1-0.4-0.2
		l1.3,0.5l0,0l-0.6-0.3l0.3,0.1l0.2,0.1c0.1,0,0.1,0.1,0.1,0.1l0.1,0l0,0v0c0-0.2-0.8-0.7-1-0.7c-0.1,0-0.3,0.1-0.4,0
		c0,0-0.1-0.1-0.1,0l-0.1,0c-0.1,0-0.1-0.1-0.2-0.1c-0.1,0-0.1-0.3-0.1-0.3c-0.1,0.2,0,0.1-0.1,0c0,0-0.1,0.1-0.1,0
		c-0.1-0.1-0.1,0-0.2,0c-0.2,0-0.2-0.1-0.3,0c0,0-0.3,0-0.3,0c-0.2-0.1-0.3,0-0.4-0.2c-0.2,0.1-0.3-0.1-0.5-0.2
		c-0.2,0-0.2-0.2-0.3-0.3c0,0-0.1,0-0.1-0.1c0,0-0.1,0-0.1,0l0-0.1l0,0c0,0,0,0,0,0c0,0,0-0.1,0-0.1l-0.1-0.1c0-0.1,0-0.1,0-0.2
		C240.2,14.4,240.2,14.3,240.2,14.1"/>
</g>
<path class="st2" d="M230.5,3.5C230.5,3.5,230.5,3.5,230.5,3.5c0,0,0,0.1,0.1,0.1C230.6,3.7,230.6,3.7,230.5,3.5z M229.2,1.3
	C229.2,1.3,229.2,1.3,229.2,1.3c0.3,0.3,0.5,0.6,0.7,0.9c0.1,0.3,0.3,0.5,0.4,0.7l0,0c0,0.1,0,0.1,0,0.1c-0.1-0.2-0.2-0.5-0.4-0.8
	C229.7,1.9,229.5,1.6,229.2,1.3"/>
</svg>
