<?xml version="1.0" encoding="UTF-8" standalone="no"?>
<!-- Created with Inkscape (http://www.inkscape.org/) -->

<svg
   xmlns:dc="http://purl.org/dc/elements/1.1/"
   xmlns:cc="http://creativecommons.org/ns#"
   xmlns:rdf="http://www.w3.org/1999/02/22-rdf-syntax-ns#"
   xmlns:svg="http://www.w3.org/2000/svg"
   xmlns="http://www.w3.org/2000/svg"
   xmlns:sodipodi="http://sodipodi.sourceforge.net/DTD/sodipodi-0.dtd"
   xmlns:inkscape="http://www.inkscape.org/namespaces/inkscape"
   width="66.647202mm"
   height="19.789358mm"
   viewBox="0 0 66.647202 19.789358"
   version="1.1"
   id="svg8"
   sodipodi:docname="hovedlogo.svg"
   inkscape:version="0.92.3 (2405546, 2018-03-11)">
  <defs
     id="defs2">
    <clipPath
       id="clipPath3729"
       clipPathUnits="userSpaceOnUse">
      <path
         inkscape:connector-curvature="0"
         id="path3727"
         d="M 0,56.693 H 189.921 V 0 H 0 Z" />
    </clipPath>
  </defs>
  <sodipodi:namedview
     id="base"
     pagecolor="#ffffff"
     bordercolor="#666666"
     borderopacity="1.0"
     inkscape:pageopacity="0.0"
     inkscape:pageshadow="2"
     inkscape:zoom="7.9195959"
     inkscape:cx="24.6258"
     inkscape:cy="26.073115"
     inkscape:document-units="mm"
     inkscape:current-layer="layer1"
     showgrid="false"
     inkscape:window-width="1920"
     inkscape:window-height="1177"
     inkscape:window-x="-8"
     inkscape:window-y="-8"
     inkscape:window-maximized="1"
     fit-margin-top="0"
     fit-margin-left="0"
     fit-margin-right="0"
     fit-margin-bottom="0" />
  <metadata
     id="metadata5">
    <rdf:RDF>
      <cc:Work
         rdf:about="">
        <dc:format>image/svg+xml</dc:format>
        <dc:type
           rdf:resource="http://purl.org/dc/dcmitype/StillImage" />
        <dc:title></dc:title>
      </cc:Work>
    </rdf:RDF>
  </metadata>
  <g
     inkscape:label="Layer 1"
     inkscape:groupmode="layer"
     id="layer1"
     transform="translate(-0.06536285,-0.04973673)">
    <g
       transform="matrix(0.35277777,0,0,-0.35277777,-0.28734436,19.839095)"
       inkscape:label="1_1_hovedlogo"
       id="g3721">
      <g
         id="g3723">
        <g
           clip-path="url(#clipPath3729)"
           id="g3725">
          <g
             transform="translate(59.3203,4.6353)"
             id="g3731">
            <path
               inkscape:connector-curvature="0"
               id="path3733"
               style="fill:#1d1d1b;fill-opacity:1;fill-rule:nonzero;stroke:none"
               d="M 0,0 -1.617,-4.443 H -3.021 L 1.931,9.229 H 3.624 L 8.788,-4.443 H 7.284 L 5.624,0 Z M 5.221,1.237 C 3.797,5.088 3.046,7.021 2.762,7.995 H 2.742 C 2.409,6.904 1.565,4.532 0.417,1.237 Z" />
          </g>
          <g
             transform="translate(70.4111,13.8628)"
             id="g3735">
            <path
               inkscape:connector-curvature="0"
               id="path3737"
               style="fill:#1d1d1b;fill-opacity:1;fill-rule:nonzero;stroke:none"
               d="M 0,0 H 1.39 V -6.928 C 2.449,-5.872 6.159,-2.308 8.472,0 h 1.79 l -6.018,-5.795 6.343,-7.877 H 8.876 L 3.252,-6.7 1.39,-8.357 v -5.315 H 0 Z" />
          </g>
          <g
             transform="translate(81.8306,13.8638)"
             id="g3739">
            <path
               inkscape:connector-curvature="0"
               id="path3741"
               style="fill:#1d1d1b;fill-opacity:1;fill-rule:nonzero;stroke:none"
               d="m 0,0 v -1.237 h 4.511 v -12.435 h 1.414 v 12.435 h 4.524 V 0 Z" />
          </g>
          <g
             transform="translate(94.2788,13.8638)"
             id="g3743">
            <path
               inkscape:connector-curvature="0"
               id="path3745"
               style="fill:#1d1d1b;fill-opacity:1;fill-rule:nonzero;stroke:none"
               d="m 0,0 v -13.672 h 8.75 l 0.191,1.236 h -7.56 v 5.333 h 6.894 v 1.239 H 1.381 v 4.627 H 8.616 V 0 Z" />
          </g>
          <g
             transform="translate(107.2266,6.4136)"
             id="g3747">
            <path
               inkscape:connector-curvature="0"
               id="path3749"
               style="fill:#1d1d1b;fill-opacity:1;fill-rule:nonzero;stroke:none"
               d="M 0,0 V -6.223 H -1.401 V 7.45 H 3.7 C 6.447,7.45 7.905,5.97 7.905,3.828 7.905,2.072 6.877,0.964 5.45,0.619 6.724,0.301 7.677,-0.578 7.677,-2.924 v -0.555 c 0,-0.951 -0.063,-2.195 0.179,-2.744 H 6.471 C 6.22,-5.635 6.26,-4.553 6.26,-3.331 v 0.324 C 6.26,-0.896 5.646,0 3.104,0 Z m 0,1.224 h 3.151 c 2.263,0 3.287,0.848 3.287,2.527 0,1.578 -1.027,2.474 -3.033,2.474 L 0,6.225 Z" />
          </g>
          <path
             inkscape:connector-curvature="0"
             id="path3751"
             style="fill:#1d1d1b;fill-opacity:1;fill-rule:nonzero;stroke:none"
             d="m 118.349,0.192 h 1.396 v 13.672 h -1.396 z" />
          <g
             transform="translate(123.6299,13.8638)"
             id="g3753">
            <path
               inkscape:connector-curvature="0"
               id="path3755"
               style="fill:#1d1d1b;fill-opacity:1;fill-rule:nonzero;stroke:none"
               d="m 0,0 v -13.672 h 8.75 l 0.19,1.236 H 1.381 v 5.333 h 6.893 v 1.239 H 1.381 v 4.627 H 8.614 V 0 Z" />
          </g>
          <g
             transform="translate(143.2744,13.6949)"
             id="g3757">
            <path
               inkscape:connector-curvature="0"
               id="path3759"
               style="fill:#1d1d1b;fill-opacity:1;fill-rule:nonzero;stroke:none"
               d="M 0,0 V -5.268 H -5.433 V 0 h -2.919 v -13.504 h 2.919 V -7.66 H 0 v -5.844 H 2.92 V 0 Z" />
          </g>
          <g
             transform="translate(152.1777,13.6939)"
             id="g3761">
            <path
               inkscape:connector-curvature="0"
               id="path3763"
               style="fill:#1d1d1b;fill-opacity:1;fill-rule:nonzero;stroke:none"
               d="m 0,0 v -8.045 c 0,-2.591 1.333,-3.359 2.789,-3.359 1.671,0 2.719,0.908 2.719,3.359 V 0 h 2.923 v -7.901 c 0,-4.616 -2.704,-5.793 -5.682,-5.793 -3.047,0 -5.673,1.228 -5.673,5.738 V 0 Z" />
          </g>
          <g
             transform="translate(163.707,0.191)"
             id="g3765">
            <path
               inkscape:connector-curvature="0"
               id="path3767"
               style="fill:#1d1d1b;fill-opacity:1;fill-rule:nonzero;stroke:none"
               d="M 0,0 V 13.503 H 3.619 C 5.305,10.472 8.422,5.003 9.043,3.532 H 9.08 C 8.927,4.941 8.93,7.286 8.93,9.501 v 4.002 h 2.646 V 0 H 8.144 C 6.692,2.639 3.238,8.92 2.569,10.48 H 2.533 C 2.631,9.3 2.664,6.525 2.664,4.107 V 0 Z" />
          </g>
          <g
             transform="translate(178.5244,13.6939)"
             id="g3769">
            <path
               inkscape:connector-curvature="0"
               id="path3771"
               style="fill:#1d1d1b;fill-opacity:1;fill-rule:nonzero;stroke:none"
               d="m 0,0 h 5.354 c 3.933,0 6.503,-2.59 6.503,-6.582 0,-3.938 -2.494,-6.921 -6.626,-6.921 H 0 Z m 2.919,-11.144 h 2.19 c 2.589,0 3.733,1.925 3.733,4.555 0,2.206 -1.072,4.232 -3.716,4.232 H 2.919 Z" />
          </g>
          <g
             transform="translate(55.0269,24.7261)"
             id="g3773">
            <path
               inkscape:connector-curvature="0"
               id="path3775"
               style="fill:#0099bd;fill-opacity:1;fill-rule:nonzero;stroke:none"
               d="m 0,0 c -3.225,5.85 -8.415,8.705 -15.126,8.69 -2.08,-0.003 -4.161,-0.055 -6.436,-0.088 0.216,0.798 0.366,1.332 0.503,1.869 1.686,6.649 -0.72,13.626 -6.276,17.577 -5.205,3.702 -10.894,4.367 -16.727,1.706 -5.769,-2.631 -9.209,-7.256 -9.67,-13.587 -0.393,-5.382 -0.2,-10.809 -0.214,-16.216 -0.015,-5.844 0.045,-11.686 0.043,-17.53 -0.001,-1.303 -0.025,-2.606 -0.054,-3.912 2.046,1.685 4.23,3.206 6.509,4.557 1.638,0.971 3.33,1.876 5.084,2.622 0.354,0.152 0.294,0.169 0.337,0.578 -0.35,0.012 -0.7,0.028 -1.058,0.039 0.065,3.699 0.134,7.569 0.204,11.549 0.477,0.012 1.066,0.04 1.654,0.041 0.75,0 1.501,0 2.251,10e-4 0.505,1.183 0.979,2.146 1.381,2.958 0.139,0.283 0.272,0.549 0.392,0.799 0.487,1.011 0.978,2.018 1.507,3.007 0.164,0.307 0.329,0.614 0.515,0.907 0.051,0.08 0.134,0.164 0.171,0.249 0.075,0.169 0.054,0.393 0.076,0.588 0.126,1.099 0.44,2.211 0.882,3.243 -0.639,-0.412 -1.359,-0.704 -2.134,-0.826 -0.433,-0.069 -0.876,-0.086 -1.315,-0.094 -1.837,-0.037 -3.674,-0.061 -5.47,-0.089 -0.026,2.298 -0.156,4.423 -0.049,6.534 0.151,2.987 2.892,5.378 5.91,5.332 3.067,-0.045 5.546,-2.394 5.784,-5.477 0.046,-0.604 -0.013,-1.199 -0.153,-1.771 0.436,0.431 0.884,0.85 1.314,1.281 l 0.772,0.772 c 0.841,-1.725 1.317,-3.75 1.259,-5.666 1.643,1.134 3.254,2.317 4.857,3.507 0.534,-0.934 0.811,-2.072 0.796,-3.145 -0.005,-0.416 -0.058,-0.83 -0.162,-1.234 -0.031,-0.12 -0.067,-0.237 -0.107,-0.354 -0.051,-0.15 -0.072,-0.15 -0.002,-0.267 0.067,-0.111 0.295,-0.213 0.4,-0.29 0.634,-0.464 1.253,-0.952 1.831,-1.486 0.631,-0.583 1.221,-1.222 1.69,-1.942 0.098,-0.15 0.172,-0.36 0.291,-0.49 0.106,-0.115 0.265,-0.179 0.41,-0.254 0.356,-0.185 0.713,-0.363 1.073,-0.541 1.355,-0.665 2.73,-1.292 4.112,-1.904 0.661,-0.292 0.455,-0.196 1.117,-0.486 0.656,-0.286 1.423,-1.217 1.108,-1.933 -0.3,-0.68 -0.485,-1.17 -0.999,-1.659 1.229,-0.66 2.152,-1.753 2.678,-3.201 0.82,-2.261 0.143,-4.854 -1.703,-6.443 -1.247,-1.075 -2.725,-1.431 -4.346,-1.426 -2.517,0.006 -5.035,0.005 -7.552,0.006 0.007,-0.076 0.017,-0.15 0.024,-0.224 0.064,-0.719 0.117,-1.438 0.147,-2.157 0.069,-1.688 -0.05,-3.369 -0.166,-5.052 -0.078,-1.133 -0.168,-2.264 -0.272,-3.394 2.769,-0.002 5.537,0.005 8.305,0.041 5.847,0.078 10.575,2.509 13.818,7.393 C 2.9,-11.742 3.207,-5.817 0,0" />
          </g>
          <g
             transform="translate(25.6338,40.0352)"
             id="g3777">
            <path
               inkscape:connector-curvature="0"
               id="path3779"
               style="fill:#01354b;fill-opacity:1;fill-rule:nonzero;stroke:none"
               d="m 0,0 c -0.257,-0.258 -0.515,-0.515 -0.772,-0.773 -0.43,-0.429 -0.878,-0.849 -1.314,-1.28 -0.8,-0.789 -1.56,-1.615 -2.093,-2.609 -0.172,-0.322 -0.333,-0.656 -0.48,-0.999 -0.443,-1.034 -0.757,-2.144 -0.882,-3.244 -0.022,-0.194 -10e-4,-0.418 -0.076,-0.587 -0.037,-0.085 -0.12,-0.17 -0.171,-0.249 -0.186,-0.293 -0.352,-0.601 -0.516,-0.908 -0.528,-0.988 -1.019,-1.997 -1.506,-3.006 -0.121,-0.25 -0.253,-0.517 -0.393,-0.801 -0.401,-0.811 -0.875,-1.773 -1.38,-2.959 -0.86,-2.014 -1.811,-4.674 -2.655,-8.351 -0.245,-1.071 -0.279,-2.18 -0.395,-3.274 0,-0.002 -0.001,-0.002 -0.001,-0.004 -0.043,-0.408 0.017,-0.425 -0.337,-0.577 -1.754,-0.745 -3.446,-1.65 -5.084,-2.623 -2.279,-1.35 -4.463,-2.87 -6.51,-4.556 -0.023,-1.054 -0.049,-2.112 -0.069,-3.173 0.597,-0.015 0.914,-0.03 1.231,-0.031 6.604,-0.005 13.209,-0.012 19.813,-0.013 3.358,0 6.716,-0.016 10.074,-0.019 0.104,1.132 0.194,2.263 0.272,3.395 0.116,1.683 0.235,3.365 0.166,5.052 -0.03,0.719 -0.083,1.439 -0.148,2.157 -0.006,0.075 -0.016,0.149 -0.023,0.223 -0.099,1.062 -0.226,2.122 -0.382,3.176 -0.221,1.494 -0.469,3.006 -0.883,4.463 1.404,-0.646 2.926,-0.94 4.456,-0.94 0.609,0 1.22,0.046 1.825,0.135 1.45,0.217 3.292,0.56 4.352,1.656 0.386,0.398 0.687,0.874 0.916,1.377 0.124,0.272 0.171,0.633 0.318,0.884 0.06,0.104 0.186,0.187 0.274,0.268 0.017,0.015 0.031,0.03 0.047,0.046 0.514,0.49 0.699,0.977 0.999,1.66 0.315,0.715 -0.452,1.646 -1.108,1.932 -0.663,0.289 -0.456,0.194 -1.118,0.487 -1.381,0.611 -2.756,1.238 -4.112,1.904 -0.359,0.176 -0.717,0.355 -1.072,0.539 -0.145,0.075 -0.304,0.14 -0.41,0.255 -0.119,0.129 -0.193,0.339 -0.291,0.49 -0.469,0.721 -1.059,1.359 -1.69,1.941 -0.578,0.534 -1.197,1.022 -1.832,1.488 -0.104,0.076 -0.332,0.178 -0.4,0.289 -0.07,0.116 -0.048,0.117 0.003,0.267 0.04,0.117 0.076,0.235 0.107,0.354 0.103,0.404 0.157,0.819 0.162,1.235 0.015,1.072 -0.262,2.21 -0.796,3.144 C 4.512,-3.348 2.902,-4.532 1.259,-5.666 1.317,-3.75 0.841,-1.724 0,0" />
          </g>
          <g
             transform="translate(25.2026,37.9478)"
             id="g3781">
            <path
               inkscape:connector-curvature="0"
               id="path3783"
               style="fill:#01354b;fill-opacity:1;fill-rule:nonzero;stroke:none"
               d="M 0,0 C 0.37,-1.17 0.549,-2.387 0.514,-3.543 L 0.443,-5.87 2.359,-4.547 C 3.621,-3.676 4.87,-2.771 6.021,-1.925 6.121,-2.342 6.172,-2.776 6.167,-3.2 6.162,-3.528 6.12,-3.85 6.041,-4.157 6.019,-4.241 5.993,-4.329 5.96,-4.425 L 5.948,-4.46 C 5.847,-4.734 5.75,-5.158 6.064,-5.679 c 0.2,-0.332 0.503,-0.51 0.684,-0.617 0.015,-0.009 0.03,-0.017 0.043,-0.026 0.689,-0.506 1.234,-0.948 1.714,-1.391 0.647,-0.598 1.138,-1.16 1.499,-1.715 0.017,-0.027 0.032,-0.059 0.048,-0.09 0.077,-0.152 0.184,-0.362 0.367,-0.56 0.235,-0.254 0.498,-0.384 0.672,-0.47 l 0.063,-0.032 c 0.335,-0.173 0.693,-0.354 1.094,-0.55 1.2,-0.589 2.52,-1.2 4.154,-1.924 0.393,-0.175 0.486,-0.214 0.628,-0.275 0.099,-0.042 0.222,-0.095 0.496,-0.215 0.176,-0.076 0.399,-0.322 0.461,-0.471 l -0.035,-0.08 c -0.25,-0.572 -0.373,-0.837 -0.659,-1.11 -0.013,-0.012 -0.024,-0.024 -0.037,-0.036 l -0.027,-0.024 c -0.117,-0.095 -0.313,-0.256 -0.461,-0.512 -0.156,-0.267 -0.235,-0.539 -0.298,-0.757 -0.025,-0.085 -0.055,-0.192 -0.074,-0.233 -0.191,-0.418 -0.424,-0.77 -0.691,-1.046 -0.757,-0.782 -2.216,-1.091 -3.68,-1.309 -0.553,-0.082 -1.108,-0.124 -1.652,-0.124 -1.428,0 -2.762,0.28 -3.964,0.832 l -2.322,1.066 0.698,-2.458 c 0.41,-1.439 0.654,-2.981 0.851,-4.312 0.15,-1.01 0.276,-2.057 0.374,-3.113 0.004,-0.042 0.009,-0.084 0.014,-0.126 0.003,-0.032 0.007,-0.062 0.009,-0.093 0.073,-0.808 0.118,-1.475 0.144,-2.1 0.065,-1.596 -0.043,-3.173 -0.158,-4.843 l -0.006,-0.081 c -0.053,-0.775 -0.112,-2.721 -0.175,-3.472 -1.229,10e-4 -3.547,0.007 -4.776,0.009 -1.77,0.005 -4.312,-0.009 -6.082,-0.009 -5.789,10e-4 -19.128,0.03 -19.128,0.03 -0.01,0 0.002,1.849 0.002,1.849 1.844,1.484 5.019,3.652 7.123,4.899 1.805,1.069 3.422,1.904 4.944,2.552 0.68,0.289 0.98,0.697 1.036,1.408 0.003,0.036 0.006,0.079 0.012,0.128 l 0.001,0.014 v 10e-4 c 0.033,0.313 0.06,0.626 0.086,0.94 0.066,0.769 0.127,1.495 0.285,2.183 0.696,3.033 1.543,5.699 2.59,8.154 0.503,1.178 0.974,2.132 1.353,2.898 l 0.022,0.043 c 0.134,0.272 0.26,0.528 0.376,0.768 0.464,0.963 0.961,1.985 1.484,2.962 0.147,0.276 0.3,0.561 0.46,0.815 l 0.016,0.021 c 0.064,0.081 0.169,0.218 0.251,0.403 0.14,0.318 0.153,0.621 0.161,0.822 0.002,0.035 0.002,0.071 0.006,0.104 0.108,0.945 0.383,1.952 0.795,2.915 0.132,0.309 0.279,0.614 0.435,0.907 0.47,0.876 1.182,1.636 1.882,2.327 0.19,0.187 0.383,0.373 0.575,0.558 C -0.169,-0.163 -0.084,-0.082 0,0" />
          </g>
        </g>
      </g>
    </g>
  </g>
</svg>
