<?xml version="1.0" encoding="utf-8"?>
<!-- Generator: Adobe Illustrator 19.1.0, SVG Export Plug-In . SVG Version: 6.00 Build 0)  -->
<svg version="1.1" id="Layer_1" xmlns="http://www.w3.org/2000/svg" xmlns:xlink="http://www.w3.org/1999/xlink" x="0px" y="0px"
	 viewBox="0 0 380.2 26.4" style="enable-background:new 0 0 380.2 26.4;" xml:space="preserve" preserveAspectRatio="xMinyMin meet">
<style type="text/css">
	.st0{fill:#002F87;}
	.st1{fill:#6DABE4;}
	.st2{fill:#FFFFFF;}
</style>
<g>
	<g>
		<g>
			<circle class="st0" cx="12.8" cy="3.9" r="3.1"/>
			<circle class="st1" cx="12.8" cy="13.5" r="3.1"/>
			<circle class="st1" cx="3.1" cy="13.5" r="3.1"/>
			<circle class="st1" cx="22.4" cy="13.5" r="3.1"/>
			<circle class="st1" cx="12.8" cy="23.1" r="3.1"/>
		</g>
		<rect x="321.3" y="0.6" class="st0" width="1.5" height="25.4"/>
		<g>
			<path d="M376.6,6.4c-1.9-0.1-4.9,0.8-5,0.7c-0.1-0.1-0.1-0.1-0.1-0.6c0.1-0.4,0.4-1.1,1.1-1.3c0.4-0.1,1.1-0.4,2.2-0.5
				c1.2-0.1,2.8,0,3.1-0.1c-0.3-0.4-0.5-0.8-0.7-0.9c-0.7-0.4-3-0.5-4.1-1c-0.8-0.4-1-1.2-1.7-1.6c-0.4-0.2-0.7-0.3-1.1-0.3
				c-0.3-0.2-0.8-0.1-1.1-0.2c0-0.1-0.5-0.1-0.7,0c-0.1-0.1-0.7,0.1-0.9,0.2c0-0.1,0.1-0.1,0.1-0.2c0.1-0.1,0.4-0.2,0.4-0.2
				c0,0-0.4,0-0.6,0.2c-0.1,0.1,0,0.1-0.1,0.2c0-0.1,0-0.1,0-0.3c0.1-0.2,0.2-0.4,0.3-0.4c-0.1,0-0.5,0.2-0.5,0.4
				c0,0.2,0.1,0.1,0.1,0.4c-0.1,0,0-0.2-0.3-0.2c-0.3-0.1-0.8,0-0.9,0c0,0,0.2,0,0.5,0c0.1,0,0.2,0,0.4,0.1c0,0.1,0.2,0,0.2,0.2
				c-0.2,0.1-0.2,0.1-0.3,0.1c-0.1,0.1-0.3,0.2-0.5,0.4c-0.3,0.4-1.9,3.2-2.3,3.9c-0.6,1-2,1.2-2.4,1.3c-1.7,0.7-5.2,0-8.4-0.9
				c-1.8-0.5-7.9,0.4-10.5,1.3c-0.9,0.3-4.1,1.6-3.4,2.8c0.2,0.4,2,0.6,4.1,0.6c1.7,0,3.7-0.2,5.6,0c2.4,0.2,5.2,0.9,4.1,1.7
				c-1.1,0.8-2.3,1.4-3.3,2c-1.8,1-2.1,1.1-3.1,1.6c-1.9,0.7-3.5,1.4-4.4,1.5c-0.2,0-1.1,0.1-1.4,0c-1.2-0.1-2.2-1-2.6-2.1l-0.1,0
				c-0.1,0-0.2,0.1-0.2,0.3c0,0.2,0.1,0.3,0.1,0.5c0.4,1.3,0.3,1.1,0.5,2.2c0.2,1.2-0.2,1.4-0.4,1.5c-0.5,0.1-0.6,0.2-1.1,0.2
				l-0.4,0.1c-0.2,0.1-0.4,0.1-0.4,0.5c0,0.2,0.3,0.5,0.5,0.7c0,0.3-0.1,0.6,0.2,0.8c0.4,0.3,0.1,0.6,0.5,1c0.5,0.6,1.4,0.6,2.8,0.1
				c0.1,0.1,0.2,0.2,0.4,0.3c0.3,0.3,0.8,0.7,1.9,1.2c0.2,0.1,0.4,0.2,0.6,0.2c-0.1,0-0.4,0.2-0.5,0.2c-0.1,0-0.2,0.1-0.2,0.3
				c0.1,0.2,0.1,0.3,0.2,0.4c0.2,0.1,0.5,0,0.7,0.1c0,0.2,0.2,0.3,0.4,0.4c0.2,0.1,0.2,0.1,0.7,0.1c0,0,0.1,0.3,0.4,0.3
				c1.1,0,2.1-0.3,2.8-1.1c1.4,0,3.3-0.3,6-0.7c2.4-0.4,3.8-0.6,7.6-1.9c2.3-0.8,3.4-1.4,5.2-2.4c1.6-0.9,2.4-1.2,3.6-2.4
				c1.2-1.2,1.5-1.4,2.4-3.1c0.7-1.4,0.7-1.4,0.9-2.6c0.1-0.3-0.3-0.9,1.1-1.8c0.4-0.2,1.1-0.8,2.3-1c1.3-0.3,3.5-0.5,3.6-0.9
				C380.3,7.5,378.2,6.5,376.6,6.4z"/>
			<path class="st2" d="M344.4,24.9c-0.3,0.5-0.9,0.3-1.1,0.2c-0.1,0,0-0.1,0-0.1C343.9,24.9,343.8,24.6,344.4,24.9z"/>
			<path class="st2" d="M346.5,25.2c-0.7,0.9-1.7,0.6-1.8,0.6c-0.1-0.1,0.7-0.5,0.9-0.6C345.8,25.1,346.4,25.2,346.5,25.2z"/>
			<path class="st2" d="M345.3,25c-0.2,0.1-0.2,0.7-1.4,0.5c-0.2,0,0.4-0.3,0.4-0.3C344.7,25.1,344.9,24.8,345.3,25z"/>
			<path class="st2" d="M369.7,1.1c0.3,0.1,0.7,0.1,1.2,0.2c1,0.2,1.1,1,1.6,1.4c0.4,0.3,0.8,0.5,1.2,0.6c2.4,0.4,3.5,0.6,3.6,1
				c-1,0-2.6-0.2-3.5-0.3c-0.6-0.1-1.3-0.1-1.8-0.2c-0.3,0-0.6-0.1-0.6-0.2c0-0.1,0-0.3-0.1-0.6c0,0.2-0.1,0.3-0.3,0.7
				c-0.2,0.4-0.3,0.4-0.6,0.7c0,0.1,0.3,0,0.5-0.1c0.2-0.1,0.1-0.2,0.3-0.3c0.2,0,0.3,0.1,1.2,0.3c0.5,0.1,1.3,0.1,1.8,0.2
				c-0.1,0-1.3,0.2-1.8,0.4c-0.6,0.2-1.2,0.8-1.4,1.3c-0.1,0.4,0.2,1.4,0.5,2.3c0.3,0.7,0.6,1.1,0.8,2.2c0.3,1.5-0.4,3.4-1.2,4.4
				c-2.3,2.7-4.1,3.8-6.8,5.1c-2.9,1.4-4.1,1.7-7.2,2.8c-3.5,1.2-8.9,1.6-10,1.5c0,0-0.2-0.1,0.1-0.2l0.2-0.2
				c-0.9,0.2-2,0.3-2.8,0.3c0.1-0.1,1-0.3,1.1-0.5l0,0c-0.7,0.1-1.8,0.4-2.5,0c0.2-0.1,0.8-0.3,1-0.4c-0.1-0.1-0.4,0-0.5,0
				c-0.4,0-0.9,0-1.3-0.1c-0.3-0.2-0.6-0.4-0.9-0.6c-0.5-0.4-1.1-0.9-1.4-1.5c0-0.1-0.1-0.2-0.1-0.2c-0.1,0-0.1,0-0.1,0.1
				c0,0.5,0.3,0.8,0.5,1.2c-0.6,0.3-1.5,0.8-2.2,0.3c0-0.1-0.1-0.1,0-0.2c0.3-0.2,0.6-0.2,1-0.4l-0.1-0.1c-0.5,0-1.1,0-1.4-0.4
				c0.1-0.1,0.3,0,0.4-0.1c0.2-0.1,0.5-0.1,0.7-0.2c0,0,0-0.1,0-0.1c-0.6-0.1-1.3,0-1.6-0.6l0-0.1l0.1,0c0.8-0.1,1.6-0.1,2.2-0.7
				c0.3-0.3,0.4-1,0.4-1.4l0-0.3c0.4,0.2,3.5,0.8,5.6,0.5c3.6-0.5,6.2-1.4,9.5-2.8c3.5-1.4,7.3-4.3,7.4-4.6c0.5-0.3,3-2.5,3.2-3.3
				c0.4-1.2,0.1-3.1,1.2-3.4c0.7-0.1,0.9-0.1,1.1-0.3c-0.2-0.2-0.3-0.7-0.3-0.8c0-0.1,0.1-0.4,0.1-0.5c0,0,0.1-0.1,0.3-0.4
				c0.1-0.1,0.2-0.2,0.3-0.3l0-0.1c0.1-0.2,0.1-0.2,0.2-0.4c0.1,0,0.2-0.1,0.2-0.1l0.1-0.1c0.1-0.1,0.2-0.1,0.3-0.2
				C368.9,1.2,369.3,1,369.7,1.1z"/>
			<path d="M371.1,2.4c0.1,0.1,0.1,0.2,0.1,0.3l0,0c-0.5-0.3-0.6-0.1-0.9-0.3c0-0.2,0.4-0.2,0.8-0.2C371.2,2.2,371,2.3,371.1,2.4z"
				/>
		</g>
	</g>
	<g>
		<path class="st0" d="M40.5,10c-0.7,0.5-1.6,0.7-2.8,0.7c-1.2,0-2.1-0.2-2.8-0.7c-1-0.7-1.4-1.5-1.4-3.3v-6h1.9v6.1
			c0,1.5,0.8,2.2,2.3,2.2C39.2,9,40,8.2,40,6.8V0.7h1.9v6C41.9,8.5,41.5,9.3,40.5,10z"/>
		<path class="st0" d="M50.9,10.7l-4.2-6.4c0,0-0.1-0.2-0.2-0.4c-0.1-0.1-0.1-0.2-0.1-0.2c-0.1-0.1-0.1-0.2-0.1-0.3v7.3h-1.8V0.7
			h2.2l4.2,6.5c0,0,0.1,0.1,0.1,0.2c0,0.1,0.1,0.2,0.1,0.2L51,7.8L51.1,8V0.7h1.8v10H50.9z"/>
		<path class="st0" d="M55.7,10.6V0.7h1.9v9.9H55.7z"/>
		<path class="st0" d="M63.9,10.9h-1.3L58.9,0.7h2.1l2.3,6.7l0,0.1l0,0.2l0,0.2l0-0.1c0-0.1,0-0.2,0-0.3l0.1-0.1l2.2-6.7h2
			L63.9,10.9z"/>
		<path class="st0" d="M68.9,10.6V0.7h6v1.6h-4.1v2.4h3.4v1.6h-3.4V9h4.3v1.6H68.9z"/>
		<path class="st0" d="M82.1,10.6l-2.3-4h-0.9v4H77V0.7h3.3c1.4,0,2.1,0.2,2.7,0.7c0.5,0.5,0.8,1.2,0.8,2.1c0,0.8-0.2,1.4-0.5,1.9
			c-0.4,0.5-0.7,0.7-1.5,0.9l2.5,4.2H82.1z M80.1,2.3h-1.2V5h1.2c1.2,0,1.7-0.4,1.7-1.4C81.9,2.7,81.4,2.3,80.1,2.3z"/>
		<path class="st0" d="M91.3,3c-1-0.5-1.9-0.7-2.6-0.7c-0.9,0-1.5,0.4-1.5,0.9c0,0.4,0.2,0.7,0.9,1c1.5,0.8,2.5,1.4,3,1.9
			c0.4,0.4,0.7,1.1,0.7,1.8c0,1.8-1.3,2.8-3.5,2.8c-0.3,0-0.6,0-0.9-0.1c-0.7-0.1-1-0.2-2.1-0.7C85.3,10,85,9.9,84.8,9.7L85.5,8
			c0.7,0.4,1,0.5,1.4,0.7C87.4,8.8,88,9,88.4,9c0.9,0,1.4-0.4,1.4-1c0-0.4-0.2-0.7-0.9-1.1L87.4,6c-1.8-1-2.3-1.7-2.3-2.7
			c0-0.5,0.1-1,0.4-1.4c0.2-0.3,0.4-0.5,0.7-0.7c0.7-0.5,1.3-0.7,2.5-0.7c0.7,0,1.2,0.1,1.9,0.3C91.1,0.9,91.3,1,92,1.3L91.3,3z"/>
		<path class="st0" d="M93.8,10.6V0.7h1.9v9.9H93.8z"/>
		<path class="st0" d="M101.9,2.3v8.3H100V2.3h-3V0.7h7.8v1.6H101.9z"/>
		<path class="st0" d="M106.4,10.6V0.7h6v1.6h-4.1v2.4h3.4v1.6h-3.4V9h4.3v1.6H106.4z"/>
		<path class="st0" d="M118.1,2.3v8.3h-1.9V2.3h-3V0.7h7.8v1.6H118.1z"/>
		<path class="st0" d="M128,3c-1-0.5-1.9-0.7-2.6-0.7c-0.9,0-1.5,0.4-1.5,0.9c0,0.4,0.2,0.7,0.9,1c1.5,0.8,2.5,1.4,3,1.9
			c0.4,0.4,0.7,1.1,0.7,1.8c0,1.8-1.3,2.8-3.5,2.8c-0.3,0-0.6,0-0.9-0.1c-0.7-0.1-1-0.2-2.1-0.7c-0.1-0.1-0.4-0.2-0.6-0.3l0.8-1.7
			c0.7,0.4,1,0.5,1.4,0.7c0.5,0.2,1,0.3,1.4,0.3c0.9,0,1.4-0.4,1.4-1c0-0.4-0.2-0.7-0.9-1.1L124.2,6c-1.8-1-2.3-1.7-2.3-2.7
			c0-0.5,0.2-1,0.4-1.4c0.2-0.3,0.4-0.5,0.7-0.7c0.7-0.5,1.3-0.7,2.5-0.7c0.7,0,1.2,0.1,1.9,0.3c0.5,0.1,0.8,0.3,1.4,0.6L128,3z"/>
		<path class="st0" d="M136,3c-1-0.5-1.9-0.7-2.6-0.7c-0.9,0-1.5,0.4-1.5,0.9c0,0.4,0.2,0.7,0.9,1c1.5,0.8,2.5,1.4,3,1.9
			c0.4,0.4,0.7,1.1,0.7,1.8c0,1.8-1.3,2.8-3.5,2.8c-0.3,0-0.6,0-0.9-0.1c-0.7-0.1-1-0.2-2.1-0.7c-0.1-0.1-0.4-0.2-0.6-0.3l0.8-1.7
			c0.7,0.4,1,0.5,1.4,0.7c0.5,0.2,1,0.3,1.4,0.3c0.9,0,1.4-0.4,1.4-1c0-0.4-0.2-0.7-0.9-1.1L132.2,6c-1.8-1-2.3-1.7-2.3-2.7
			c0-0.5,0.1-1,0.4-1.4c0.2-0.3,0.4-0.5,0.7-0.7c0.7-0.5,1.3-0.7,2.5-0.7c0.7,0,1.2,0.1,1.9,0.3c0.5,0.1,0.8,0.3,1.4,0.6L136,3z"/>
		<path class="st0" d="M142.2,6.3v4.2h-1.9V6.3l-3-5.7h2.1l2,3.9l2.1-3.9h2.1L142.2,6.3z"/>
		<path class="st0" d="M151.9,10.6l-3.3-4.7v4.7h-1.9V0.7h1.9v4.6l3.1-4.6h2.2l-3.4,4.8l3.6,5.1H151.9z"/>
		<path class="st0" d="M155.4,10.6V0.7h6v1.6h-4.1v2.4h3.4v1.6h-3.4V9h4.3v1.6H155.4z"/>
		<path class="st0" d="M170.4,10.6V6.3h-5.1v4.2h-1.9V0.7h1.9v4h5.1v-4h1.9v9.9H170.4z"/>
		<path class="st0" d="M181.7,10c-0.7,0.5-1.6,0.7-2.8,0.7c-1.2,0-2.1-0.2-2.8-0.7c-1-0.7-1.4-1.5-1.4-3.3v-6h1.9v6.1
			c0,1.5,0.8,2.2,2.3,2.2c1.4,0,2.2-0.8,2.2-2.2V0.7h1.9v6C183.1,8.5,182.8,9.3,181.7,10z"/>
		<path class="st0" d="M191,3c-1-0.5-1.9-0.7-2.6-0.7c-0.9,0-1.5,0.4-1.5,0.9c0,0.4,0.2,0.7,0.9,1c1.5,0.8,2.5,1.4,3,1.9
			c0.4,0.4,0.7,1.1,0.7,1.8c0,1.8-1.3,2.8-3.5,2.8c-0.3,0-0.6,0-0.9-0.1c-0.7-0.1-1-0.2-2.1-0.7c-0.1-0.1-0.4-0.2-0.6-0.3l0.8-1.7
			c0.7,0.4,1,0.5,1.4,0.7c0.5,0.2,1,0.3,1.4,0.3c0.9,0,1.4-0.4,1.4-1c0-0.4-0.2-0.7-0.9-1.1L187.2,6c-1.8-1-2.3-1.7-2.3-2.7
			c0-0.5,0.1-1,0.4-1.4c0.2-0.3,0.4-0.5,0.7-0.7c0.7-0.5,1.3-0.7,2.5-0.7c0.7,0,1.2,0.1,1.9,0.3c0.5,0.1,0.8,0.3,1.4,0.6L191,3z"/>
		<path class="st0" d="M193.5,10.6V0.7h6v1.6h-4.1v2.4h3.4v1.6h-3.4V9h4.3v1.6H193.5z"/>
		<path class="st0" d="M205.3,2.3v8.3h-1.9V2.3h-3V0.7h7.8v1.6H205.3z"/>
		<path class="st0" d="M220.1,10.7l-4.2-6.4c0,0-0.1-0.2-0.2-0.4c-0.1-0.1-0.1-0.2-0.1-0.2c-0.1-0.1-0.1-0.2-0.1-0.3v7.3h-1.8V0.7
			h2.2l4.2,6.5c0,0,0.1,0.1,0.1,0.2c0,0.1,0.1,0.2,0.1,0.2l0.1,0.3l0.1,0.2V0.7h1.8v10H220.1z"/>
		<path class="st0" d="M229.2,10.8c-3.1,0-5.3-2.1-5.3-5.1c0-3.1,2.1-5.1,5.3-5.1c3.1,0,5.3,2.1,5.3,5.1
			C234.5,8.6,232.3,10.8,229.2,10.8z M229.2,2.1c-1.9,0-3.3,1.5-3.3,3.5c0,2,1.4,3.5,3.3,3.5c1.9,0,3.2-1.5,3.2-3.5
			C232.5,3.6,231.1,2.1,229.2,2.1z"/>
		<path class="st0" d="M241.4,10.6l-2.3-4h-0.9v4h-1.9V0.7h3.3c1.4,0,2.1,0.2,2.7,0.7c0.5,0.5,0.8,1.2,0.8,2.1
			c0,0.8-0.2,1.4-0.5,1.9c-0.4,0.5-0.7,0.7-1.5,0.9l2.5,4.2H241.4z M239.4,2.3h-1.2V5h1.2c1.2,0,1.7-0.4,1.7-1.4
			C241.1,2.7,240.6,2.3,239.4,2.3z"/>
		<path class="st0" d="M252.6,9.1c-0.9,1-2.2,1.5-4,1.5H245V0.7h3.7c1.9,0,3,0.4,4,1.5c0.9,0.9,1.3,2.2,1.3,3.5
			C254,6.9,253.5,8.2,252.6,9.1z M250.8,2.9c-0.5-0.4-1.3-0.6-2.4-0.6h-1.5v6.6h1.5c2.3,0,3.5-1.2,3.5-3.3
			C252,4.5,251.5,3.4,250.8,2.9z"/>
		<path class="st0" d="M254.9,8V6.3h3.1V8H254.9z"/>
		<path class="st0" d="M266.5,10.7l-4.2-6.4c0,0-0.1-0.2-0.2-0.4c-0.1-0.1-0.1-0.2-0.1-0.2c-0.1-0.1-0.1-0.2-0.1-0.3v7.3h-1.8V0.7
			h2.2l4.2,6.5c0,0,0.1,0.1,0.1,0.2c0,0.1,0.1,0.2,0.1,0.2l0.1,0.3l0.1,0.2V0.7h1.8v10H266.5z"/>
		<path class="st0" d="M275.6,10.8c-3.1,0-5.3-2.1-5.3-5.1c0-3.1,2.1-5.1,5.3-5.1c3.1,0,5.3,2.1,5.3,5.1
			C280.9,8.6,278.7,10.8,275.6,10.8z M275.6,2.1c-1.9,0-3.3,1.5-3.3,3.5c0,2,1.4,3.5,3.3,3.5c1.9,0,3.2-1.5,3.2-3.5
			C278.9,3.6,277.5,2.1,275.6,2.1z"/>
		<path class="st0" d="M287.8,10.6l-2.3-4h-0.9v4h-1.9V0.7h3.3c1.4,0,2.1,0.2,2.7,0.7c0.5,0.5,0.8,1.2,0.8,2.1
			c0,0.8-0.2,1.4-0.5,1.9c-0.4,0.5-0.7,0.7-1.5,0.9l2.5,4.2H287.8z M285.8,2.3h-1.2V5h1.2c1.2,0,1.7-0.4,1.7-1.4
			C287.5,2.7,287,2.3,285.8,2.3z"/>
		<path class="st0" d="M298.6,10.4c-1,0.3-1.7,0.3-2.5,0.3c-3.3,0-5.6-2.1-5.6-5.2c0-1.5,0.6-2.8,1.6-3.8c1-0.9,2.2-1.3,3.9-1.3
			c0.7,0,1.4,0.1,2.1,0.2c0.5,0.1,0.8,0.2,1.5,0.5l-0.5,1.6c-0.4-0.1-0.6-0.2-0.8-0.3c-0.7-0.2-1.4-0.4-2-0.4
			c-2.2,0-3.8,1.4-3.8,3.3c0,2,1.7,3.6,3.9,3.6c0.5,0,0.7,0,1.3-0.2V6.1h1.9v4C299.2,10.3,298.8,10.4,298.6,10.4z"/>
		<path class="st0" d="M302.1,10.6V0.7h6v1.6H304v2.4h3.4v1.6H304V9h4.3v1.6H302.1z"/>
		<path class="st0" d="M37.7,19.5c-0.5,0.6-1.2,0.9-2.2,0.9h-2v-5.9h2c1.7,0,3,1.2,3,2.9C38.5,18.1,38.2,18.9,37.7,19.5z M35.4,15
			h-1.1v4.7h1.1c0.8,0,1.2-0.2,1.6-0.5c0.4-0.5,0.7-1.2,0.7-1.8C37.8,16,36.8,15,35.4,15z"/>
		<path class="st0" d="M43.5,20.3l-0.6-1.8h-2.4l-0.6,1.8H39l2.2-6.1h0.8l2.2,6.1H43.5z M41.7,15.2l-1,2.7h1.9L41.7,15.2z"/>
		<path class="st0" d="M46.7,20.5h-0.5L44,14.4h0.8l1.8,4.6c0,0.1,0.1,0.2,0.1,0.3c0-0.1,0-0.2,0.1-0.3l1.7-4.6H49L46.7,20.5z"/>
		<path class="st0" d="M52,20.5h-0.5l-2.3-6.1H50l1.8,4.6c0,0.1,0.1,0.2,0.1,0.3c0-0.1,0-0.2,0.1-0.3l1.7-4.6h0.7L52,20.5z"/>
		<path class="st0" d="M55.4,20.3v-5.9h0.7v5.9H55.4z"/>
		<path class="st0" d="M57.5,18.6v-0.7h1.7v0.7H57.5z"/>
		<path class="st0" d="M64.6,20.4l-3-4.6c0,0-0.1-0.1-0.1-0.2c0-0.1-0.1-0.1-0.1-0.1c0-0.1-0.1-0.1-0.1-0.2v5.1h-0.7v-5.9h1l2.9,4.5
			c0,0,0.1,0.1,0.1,0.1c0,0.1,0,0.1,0.1,0.3c0,0,0,0.1,0,0.1v-5h0.7v6H64.6z"/>
		<path class="st0" d="M69.8,20.4c-1.7,0-3-1.3-3-3.1c0-1.8,1.3-3.1,3-3.1c1.7,0,3,1.3,3,3.1C72.8,19.1,71.6,20.4,69.8,20.4z
			 M69.8,14.9c-1.2,0-2.2,1.1-2.2,2.4c0,1.3,1,2.4,2.2,2.4c1.2,0,2.2-1.1,2.2-2.4C72,16,71,14.9,69.8,14.9z"/>
		<path class="st0" d="M77.4,20.3l-1.6-2.5H75v2.5h-0.7v-5.9H76c0.7,0,1.1,0.1,1.4,0.4c0.3,0.3,0.5,0.7,0.5,1.2
			c0,0.5-0.2,0.9-0.5,1.2c-0.2,0.2-0.5,0.4-0.9,0.4l1.8,2.7H77.4z M76.8,15.2C76.6,15,76.5,15,75.9,15h-1v2.2h1
			c0.8,0,1.2-0.4,1.2-1.2C77.1,15.6,77,15.3,76.8,15.2z"/>
		<path class="st0" d="M83.6,20.2c-0.4,0.1-1,0.2-1.5,0.2c-1.8,0-3.2-1.3-3.2-3.1c0-1.8,1.3-3.1,3.1-3.1c0.4,0,0.9,0.1,1.2,0.1
			c0.3,0.1,0.4,0.1,0.7,0.3l-0.3,0.6c-0.1-0.1-0.2-0.1-0.3-0.2c-0.3-0.1-0.8-0.2-1.3-0.2c-0.8,0-1.4,0.2-1.8,0.8
			c-0.4,0.4-0.6,1-0.6,1.6c0,1.4,1.1,2.5,2.6,2.5c0.3,0,0.5,0,1-0.1v-2h0.7v2.4C83.9,20.2,83.7,20.2,83.6,20.2z"/>
		<path class="st0" d="M90,20.2c-0.4,0.1-1,0.2-1.5,0.2c-1.8,0-3.2-1.3-3.2-3.1c0-1.8,1.3-3.1,3.1-3.1c0.4,0,0.9,0.1,1.2,0.1
			c0.3,0.1,0.4,0.1,0.7,0.3l-0.3,0.6c-0.1-0.1-0.2-0.1-0.3-0.2c-0.3-0.1-0.8-0.2-1.3-0.2c-0.8,0-1.4,0.2-1.8,0.8
			c-0.4,0.4-0.6,1-0.6,1.6c0,1.4,1.1,2.5,2.6,2.5c0.3,0,0.5,0,1-0.1v-2h0.7v2.4C90.2,20.2,90.1,20.2,90,20.2z"/>
		<path class="st0" d="M95.7,20.3l-0.6-1.8h-2.4l-0.6,1.8h-0.8l2.2-6.1h0.8l2.2,6.1H95.7z M93.9,15.2l-1,2.7h1.9L93.9,15.2z"/>
		<path class="st0" d="M103.6,19.9c-0.4,0.4-1,0.5-1.6,0.5c-0.6,0-1.2-0.2-1.6-0.5c-0.5-0.4-0.7-0.9-0.7-1.7v-3.9h0.7v3.7
			c0,0.7,0.1,0.9,0.3,1.3c0.3,0.3,0.7,0.5,1.2,0.5c0.5,0,0.9-0.2,1.2-0.5c0.3-0.3,0.3-0.5,0.3-1.3v-3.7h0.7v3.9
			C104.3,19.1,104.1,19.5,103.6,19.9z"/>
		<path class="st0" d="M110.2,20.4l-3-4.6c0,0-0.1-0.1-0.1-0.2c0-0.1-0.1-0.1-0.1-0.1c0-0.1-0.1-0.1-0.1-0.2v5.1h-0.7v-5.9h1
			l2.9,4.5c0,0,0.1,0.1,0.1,0.1c0,0.1,0,0.1,0.1,0.3c0,0,0,0.1,0,0.1v-5h0.7v6H110.2z"/>
		<path class="st0" d="M113,20.3v-5.9h0.7v5.9H113z"/>
		<path class="st0" d="M117.6,20.5h-0.5l-2.3-6.1h0.8l1.8,4.6c0,0.1,0.1,0.2,0.1,0.3c0-0.1,0-0.2,0.1-0.3l1.7-4.6h0.7L117.6,20.5z"
			/>
		<path class="st0" d="M120.9,20.3v-5.9h3.3V15h-2.6v2h2.2v0.6h-2.2v2.1h2.7v0.6H120.9z"/>
		<path class="st0" d="M128.9,20.3l-1.6-2.5h-0.8v2.5h-0.7v-5.9h1.8c0.7,0,1.1,0.1,1.4,0.4c0.3,0.3,0.5,0.7,0.5,1.2
			c0,0.5-0.2,0.9-0.5,1.2c-0.2,0.2-0.5,0.4-0.9,0.4l1.8,2.7H128.9z M128.3,15.2c-0.2-0.1-0.3-0.2-0.9-0.2h-1v2.2h1
			c0.8,0,1.2-0.4,1.2-1.2C128.7,15.6,128.6,15.3,128.3,15.2z"/>
		<path class="st0" d="M134,15.4c-0.3-0.2-0.4-0.2-0.6-0.3c-0.2-0.1-0.6-0.1-0.8-0.1c-0.7,0-1.1,0.3-1.1,0.8c0,0.4,0.3,0.7,1.5,1.3
			c0.4,0.2,0.7,0.4,0.9,0.6c0.3,0.2,0.5,0.6,0.5,1.1c0,1-0.8,1.7-2,1.7c-0.4,0-0.8-0.1-1.1-0.2c-0.2-0.1-0.4-0.2-0.8-0.4l0.4-0.6
			c0.3,0.2,0.5,0.3,0.7,0.4c0.3,0.1,0.5,0.2,0.9,0.2c0.7,0,1.1-0.3,1.1-0.9c0-0.2,0-0.3-0.1-0.4c-0.1-0.2-0.3-0.4-0.5-0.5
			c-0.1-0.1-0.4-0.2-1-0.5c-0.9-0.5-1.3-0.9-1.3-1.6c0-0.9,0.8-1.6,2-1.6c0.3,0,0.7,0,1,0.1c0.2,0.1,0.4,0.2,0.7,0.4L134,15.4z"/>
		<path class="st0" d="M135.8,20.3v-5.9h0.7v5.9H135.8z"/>
		<path class="st0" d="M140.3,15v5.3h-0.7V15h-2v-0.6h4.7V15H140.3z"/>
		<path class="st0" d="M143.4,20.3v-5.9h3.3V15h-2.6v2h2.2v0.6h-2.2v2.1h2.7v0.6H143.4z"/>
		<path class="st0" d="M152.5,20.3v-2.7H149v2.7h-0.7v-5.9h0.7v2.5h3.5v-2.5h0.7v5.9H152.5z"/>
		<path class="st0" d="M157,15v5.3h-0.7V15h-2v-0.6h4.7V15H157z"/>
		<path class="st0" d="M162.9,20.3l-0.6-1.8h-2.4l-0.6,1.8h-0.8l2.2-6.1h0.8l2.2,6.1H162.9z M161.1,15.2l-1,2.7h1.9L161.1,15.2z"/>
		<path class="st0" d="M166.9,20.3h-2.2v-5.9h1.9c0.6,0,0.9,0.1,1.2,0.4c0.3,0.3,0.5,0.7,0.5,1.1c0,0.6-0.4,1.2-1,1.4
			c0.8,0.2,1.2,0.7,1.2,1.5C168.6,19.7,167.9,20.3,166.9,20.3z M167.3,15.2c-0.2-0.2-0.3-0.2-0.8-0.2h-1v1.9h1
			c0.4,0,0.6-0.1,0.8-0.3c0.2-0.2,0.3-0.5,0.3-0.8C167.5,15.6,167.5,15.4,167.3,15.2z M166.5,17.6h-1v2.1h1c0.5,0,0.7-0.1,1-0.2
			c0.2-0.2,0.3-0.5,0.3-0.8C167.8,18,167.3,17.6,166.5,17.6z"/>
		<path class="st0" d="M173.9,19.9c-0.4,0.4-1,0.5-1.6,0.5c-0.6,0-1.2-0.2-1.6-0.5c-0.5-0.4-0.7-0.9-0.7-1.7v-3.9h0.7v3.7
			c0,0.7,0.1,0.9,0.3,1.3c0.3,0.3,0.7,0.5,1.2,0.5c0.5,0,0.9-0.2,1.2-0.5c0.3-0.3,0.3-0.5,0.3-1.3v-3.7h0.7v3.9
			C174.6,19.1,174.4,19.5,173.9,19.9z"/>
		<path class="st0" d="M178.8,20.4c-1.7,0-3-1.3-3-3.1c0-1.8,1.3-3.1,3-3.1s3,1.3,3,3.1C181.8,19.1,180.6,20.4,178.8,20.4z
			 M178.8,14.9c-1.2,0-2.2,1.1-2.2,2.4c0,1.3,1,2.4,2.2,2.4c1.2,0,2.2-1.1,2.2-2.4C181,16,180,14.9,178.8,14.9z"/>
		<path class="st0" d="M187.5,20.3v-2.7H184v2.7h-0.7v-5.9h0.7v2.5h3.5v-2.5h0.7v5.9H187.5z"/>
		<path class="st0" d="M194.1,15.4c-0.5-0.3-0.9-0.5-1.5-0.5c-1.3,0-2.2,1-2.2,2.3c0,1.5,0.9,2.5,2.3,2.5c0.5,0,0.9-0.1,1.4-0.3
			l0.2,0.6c-0.4,0.2-0.5,0.2-0.8,0.3c-0.3,0.1-0.5,0.1-0.8,0.1c-1.8,0-3.1-1.3-3.1-3.1c0-1.7,1.3-3.1,3-3.1c0.4,0,0.8,0.1,1.1,0.2
			c0.3,0.1,0.4,0.2,0.7,0.4L194.1,15.4z"/>
		<path class="st0" d="M199.5,15.4c-0.5-0.3-0.9-0.5-1.5-0.5c-1.3,0-2.2,1-2.2,2.3c0,1.5,0.9,2.5,2.3,2.5c0.5,0,0.9-0.1,1.4-0.3
			l0.2,0.6c-0.4,0.2-0.5,0.2-0.8,0.3c-0.3,0.1-0.5,0.1-0.8,0.1c-1.8,0-3.1-1.3-3.1-3.1c0-1.7,1.3-3.1,3-3.1c0.4,0,0.8,0.1,1.1,0.2
			c0.3,0.1,0.4,0.2,0.7,0.4L199.5,15.4z"/>
		<path class="st0" d="M201.1,20.3v-5.9h3.3V15h-2.6v2h2.2v0.6h-2.2v2.1h2.7v0.6H201.1z"/>
		<path class="st0" d="M207.8,20.5h-0.5l-2.3-6.1h0.8l1.8,4.6c0,0.1,0.1,0.2,0.1,0.3c0-0.1,0-0.2,0.1-0.3l1.7-4.6h0.7L207.8,20.5z"
			/>
		<path class="st0" d="M211.2,20.3v-5.9h0.7v5.9H211.2z"/>
		<path class="st0" d="M213.9,20.3v-5.9h3.3V15h-2.6v2h2.2v0.6h-2.2v2.1h2.7v0.6H213.9z"/>
		<path class="st0" d="M221.7,15.4c-0.3-0.2-0.4-0.2-0.6-0.3c-0.2-0.1-0.6-0.1-0.8-0.1c-0.7,0-1.1,0.3-1.1,0.8
			c0,0.4,0.3,0.7,1.5,1.3c0.4,0.2,0.7,0.4,0.9,0.6c0.3,0.2,0.5,0.6,0.5,1.1c0,1-0.8,1.7-2,1.7c-0.4,0-0.8-0.1-1.1-0.2
			c-0.2-0.1-0.4-0.2-0.8-0.4l0.4-0.6c0.3,0.2,0.5,0.3,0.7,0.4c0.3,0.1,0.5,0.2,0.9,0.2c0.7,0,1.1-0.3,1.1-0.9c0-0.2,0-0.3-0.1-0.4
			c-0.1-0.2-0.3-0.4-0.5-0.5c-0.1-0.1-0.4-0.2-1-0.5c-0.9-0.5-1.3-0.9-1.3-1.6c0-0.9,0.8-1.6,2-1.6c0.3,0,0.7,0,1,0.1
			c0.2,0.1,0.4,0.2,0.7,0.4L221.7,15.4z"/>
		<path class="st0" d="M226.5,15.4c-0.3-0.2-0.4-0.2-0.6-0.3c-0.2-0.1-0.6-0.1-0.8-0.1c-0.7,0-1.1,0.3-1.1,0.8
			c0,0.4,0.3,0.7,1.5,1.3c0.4,0.2,0.7,0.4,0.9,0.6c0.3,0.2,0.5,0.6,0.5,1.1c0,1-0.8,1.7-2,1.7c-0.4,0-0.8-0.1-1.1-0.2
			c-0.2-0.1-0.4-0.2-0.8-0.4l0.4-0.6c0.3,0.2,0.5,0.3,0.7,0.4c0.3,0.1,0.5,0.2,0.9,0.2c0.7,0,1.1-0.3,1.1-0.9c0-0.2,0-0.3-0.1-0.4
			c-0.1-0.2-0.3-0.4-0.5-0.5c-0.1-0.1-0.4-0.2-1-0.5c-0.9-0.5-1.3-0.9-1.3-1.6c0-0.9,0.8-1.6,2-1.6c0.3,0,0.7,0,1,0.1
			c0.2,0.1,0.4,0.2,0.7,0.4L226.5,15.4z"/>
		<path class="st0" d="M232.1,19.9c-0.4,0.4-1,0.5-1.6,0.5c-0.6,0-1.2-0.2-1.6-0.5c-0.5-0.4-0.7-0.9-0.7-1.7v-3.9h0.7v3.7
			c0,0.7,0.1,0.9,0.3,1.3c0.3,0.3,0.7,0.5,1.2,0.5c0.5,0,0.9-0.2,1.2-0.5c0.3-0.3,0.3-0.5,0.3-1.3v-3.7h0.7v3.9
			C232.8,19.1,232.6,19.5,232.1,19.9z"/>
	</g>
</g>
</svg>
